<?xml version="1.0" encoding="UTF-8"?>
<svg id="Layer_1" xmlns="http://www.w3.org/2000/svg" version="1.1" viewBox="0 0 141.7 141.7">
  <!-- Generator: Adobe Illustrator 30.0.0, SVG Export Plug-In . SVG Version: 2.1.1 Build 123)  -->
  <defs>
    <style>
      .st0 {
        fill: #fff8f4;
      }
    </style>
  </defs>
  <path class="st0" d="M0,67C1.9,36.9,22.9,10.5,52,2.6c50.7-13.8,98,29.9,88.5,81.7-5.5,30.2-30.7,53.9-61.1,57.5v-55.4l.4-.4h16.7l2.5-19.7h-19.7v-14.9c0-.5.6-2.5.8-3.1,1.5-3.9,5.9-4.4,9.6-4.6s6.6,0,9.8,0v-17.8c-10.6-.4-22.3-2.6-31.4,4.2-11.3,8.5-9.1,23.6-9.3,36.1h-16.9v19.7h16.9v55.3C28.8,136.3,4.6,111.1.6,80.7c-.2-1.7-.5-3.7-.6-5.4,0,0,0-8.3,0-8.3Z"/>
</svg>