<?xml version="1.0" encoding="UTF-8"?>
<svg id="Layer_1" xmlns="http://www.w3.org/2000/svg" version="1.1" viewBox="0 0 384 384">
  <!-- Generator: Adobe Illustrator 30.0.0, SVG Export Plug-In . SVG Version: 2.1.1 Build 123)  -->
  <defs>
    <style>
      .st0 {
        fill: #fff;
      }

      .st1 {
        fill: #fff8f4;
      }
    </style>
  </defs>
  <path class="st0" d="M315.8,211.1h31.9c1.2,0,5.5-2.7,6.8-3.7,7.7-6.4,7.1-16,.7-23.2L198,36.3c-4.6-3.5-7.4-3.6-12,0L28.5,184.5c-6,7.2-6.4,16.6,1.1,22.8,7.5,6.2,5.5,3.7,6.8,3.7h31.9v121.6c0,8,11.8,17.1,19.3,18.1,11.4,1.5,40.6,1.3,52.3.2s8-3,8.6-8.6c2.3-21.7-2-47.1.3-69.3,2.7-10.8,11.6-17.2,22.5-18,9.3-.6,40.9-1.2,48.4,1.2,7.5,2.4,15,10.6,15.8,19.4,1.8,20.9-2.1,45.1,0,65.9s2.4,8.8,8.6,9.4c11.4,1.1,41.4,1.3,52.3-.2,6.3-.9,13.4-5.7,16.5-11.3s2.8-6.5,2.8-6.9v-121.6.2Z"/>
  <path class="st1" d="M315.8,211.1v121.6c0,.4-2.4,6-2.8,6.9-3.1,5.6-10.1,10.3-16.5,11.3-11,1.6-40.9,1.3-52.3.2-6.2-.6-8-3.4-8.6-9.4-2.1-20.8,1.8-44.9,0-65.9s-7.3-16.8-15.8-19.4-39.1-1.8-48.4-1.2c-10.9.8-19.8,7.2-22.5,18-2.4,22.1,2,47.5-.3,69.3-.6,5.6-3,8.1-8.6,8.6-11.8,1.1-40.9,1.3-52.3-.2s-19.3-10.2-19.3-18.1v-121.6h-31.9c-1.2,0-5.5-2.7-6.8-3.7-7.5-6.3-7.1-15.6-1.1-22.8L186,36.3c4.6-3.6,7.5-3.5,12,0l157.1,147.8c6.3,7.2,6.9,16.8-.7,23.2-1.2,1-5.5,3.7-6.8,3.7h-31.9,0Z"/>
</svg>