<?xml version="1.0" encoding="UTF-8"?>
<svg id="Layer_1" xmlns="http://www.w3.org/2000/svg" version="1.1" viewBox="0 0 141.7 141.7">
  <!-- Generator: Adobe Illustrator 30.0.0, SVG Export Plug-In . SVG Version: 2.1.1 Build 123)  -->
  <defs>
    <style>
      .st0 {
        fill: #fff;
      }
    </style>
  </defs>
  <path class="st0" d="M38.9,0h63c21.7,1.5,38.5,19.2,39.6,41s-.7,39.8,0,59.3c-.9,21.8-17.3,39.4-39,41.4h-63.6C18.2,140,1.3,122.8,0,102v-62.3C1.3,18.9,18.2,1.7,38.9,0ZM39.6,13.5c-13.9,1.3-25.2,12.8-26.3,26.8v61.2c1.5,15.7,13.5,26.4,29,27.1,18.8.8,38.2-.6,57.1,0,15.4-.5,27.7-12.5,28.6-28-.3-20.9.5-41.9-.4-62.8-2.1-13.1-13.4-23.3-26.5-24.3h-61.5Z"/>
  <path class="st0" d="M69.5,36c28.5-1.5,46.6,30.6,30.7,54.4-13.8,20.6-44.3,20.5-58-.2-14.9-22.6.5-52.8,27.3-54.2ZM86.1,54.2c-10.7-9.6-27.6-6.6-34.4,5.9-9.2,16.9,5.8,36.7,24.5,32.5,17.6-3.9,23.4-26.4,10-38.5Z"/>
  <path class="st0" d="M106.9,25.4c6-.7,10.7,4.5,9.2,10.4-1.7,6.6-10.4,8.4-14.5,3.1s-1-12.7,5.3-13.4Z"/>
</svg>