<?xml version="1.0" encoding="UTF-8"?>
<svg id="Layer_1" xmlns="http://www.w3.org/2000/svg" version="1.1" viewBox="0 0 2181.8 2182.1">
  <!-- Generator: Adobe Illustrator 30.0.0, SVG Export Plug-In . SVG Version: 2.1.1 Build 123)  -->
  <defs>
    <style>
      .st0 {
        fill: #c12c42;
      }

      .st1 {
        fill: #010101;
      }

      .st2 {
        fill: #b7bebe;
      }

      .st3 {
        fill: #701a27;
      }

      .st4 {
        fill: #c42c42;
      }

      .st5 {
        fill: #c82d44;
      }

      .st6 {
        fill: #cc2e45;
      }

      .st7 {
        fill: #3a5cd5;
      }

      .st8 {
        fill: #721a28;
      }

      .st9 {
        fill: #8f9494;
      }

      .st10 {
        fill: #776569;
      }

      .st11 {
        fill: #cb2e45;
      }

      .st12 {
        fill: #cd3047;
      }

      .st13 {
        fill: #a32437;
      }

      .st14 {
        fill: #244ad1;
      }

      .st15 {
        fill: #020202;
      }

      .st16 {
        fill: #fff;
      }

      .st17 {
        fill: #cc3046;
      }

      .st18 {
        fill: #162f85;
      }

      .st19 {
        fill: #fefefe;
      }

      .st20 {
        fill: #cc2f46;
      }

      .st21 {
        fill: #a52638;
      }

      .st22 {
        fill: #a32335;
      }

      .st23 {
        fill: #fcfcfc;
      }

      .st24 {
        fill: #cd3147;
      }
    </style>
  </defs>
  <path d="M814.6,449.1c1.6.1,6.6,4.2,8.6,1-16.1-15.9-41.3-14.1-45.6-40.8-4.1-25.5,9.2-50.3,33.6-59.6,28.6-10.8,39.9,3,63.8,14.9,1.5-8.1,9.8-16.6,17.3-19.2-35.2-47.5,39-78.7,76.2-56,6.5,4,10.3,11.1,17.8,13.8,4.5-31.2,31.7-46.6,61.9-39.8,25.3,5.7,38.9,29.5,48.5,51.3,5.7-14.8-1.1-32.3,7.8-46,12.4-19,44.9-19.9,63.3-9.8,35.6,19.7,28.2,68.1,16.3,99.9l31.3-19.5c45.2-25.1,100.5-38.5,95.3,34.9,28.6-8.5,77.5-15.7,104.3.3,19.4,11.6,20,50.8,12.8,69.6.6,3,15.8,4.8,20.4,6.5,29.2,10.9,36.8,39,27.6,67.2,200.7,114,342.1,321.2,375.6,550.4,73,500.1-344.4,932-846.7,875.5-292.8-32.9-544.1-236.9-638.3-515-120.3-354.9,35.1-748.8,364.3-922.5-1.8-17.8,6.3-42.3,22.6-51.3,1.7-.9,17.9-6,18.9-6,13.7,0,28.8-.9,42.2,0Z"/>
  <path class="st6" d="M577.6,859.8l-4.7-1.6c-12.9-14.5-58.3-54.8-76.7-49s-16.5,34.6.7,42.2c8.7,12.2-8.7,44.7-23.5,45-27.4-10.2-49.2,18.9-22.3,36.2,19.3,12.5,54.4,19.8,76.7,24.4,11.9.4,22.1,3.2,30.6,8.3,1.3-1.2,2.5-.5,3.8,1.9,4.6,21.2,11.7,40.7,32.6,50.9,21.6,10.6,36.3,6.3,57.6-1-86.9,230.8,22.6,492.8,246.2,593.3,355.4,159.7,736.9-154.1,652.4-533.5-3.1-14.1-19.8-58.6-19.9-66.5,0-7.2,8.5-26.2,10.7-35.5s3.8-23.9,4.8-36.5h4.6c20.5,37.2,34.7,35.9,70.8,19.3,24.9-11.5,92.6-45.5,104-70,8.5-18.4-25.4-61.2-38.7-72.9-33.6-29.6-94-7.4-89.7,40.2l-1.8,2.9c-17.3-7.2-31.5-10.6-48.3,1.5l-4.7-1.5c-6-34.3-24.4-81.9-43.3-111.1-4.3-6.6-29.3-35.3-29.7-37.6-.5-3.9,3.5-2.9,5.8-5.6,21.3-24.4,21.8-59,1.9-84.5-2.9-3.6-14.4-13-14.9-15.7s6.2-21.8,5.4-32.3-9.5-23.3-9.3-24.6,8.7-12.5,10.2-12.5c3.2,0,47,30.1,53.4,34.6,476.8,334.7,404.9,1066.1-127.9,1299.3-525.6,230-1101.7-190.8-1047.1-759.4,23.5-244.5,172-467.5,387-584.1,3.7-.6,8.8,8.8,12.6,11.7,20.6,16.1,42.8-1.1,65.6-.5s35.2,5.5,33.6,12.4-17.5,15.4-21.1,19.3c-26.4,28.4-40.8,67.8-35.4,106.7-86.8,28.3-174.9,101.8-212.1,186.1Z"/>
  <path class="st16" d="M811.7,1038.3c-13.1,76.2,18.4,163.3,77.8,213,12.6,10.5,27.2,17.3,40.9,26.1-3.6,11.9-4.8,25.7-3.5,38.2,1.4,13.9,10.4,23.9,12.5,37.3,9.3,59.3-52.1,107.9-51,152.6.5,20.2,19.9,32.8,19.4,48.1s-12.4,21.4-18.5,31.8c-113-56.1-199.5-161.8-232.5-283.7-22.2-81.9-21.3-166.5,2.3-248s14-46.8,21.1-57.6,2-1.2,3.8,0c3.1,2.1,6.3,6.9,9.7,9.5,32.7,25.9,77,33.8,118,32.7Z"/>
  <path class="st14" d="M1279.9,654.4c2.9.1,2.9,3.3,0,3.8-5.3,1.2-15.3,1-15.4,7.7,3.7,1.1,3.7,2.8,0,3.8-.8,0-2.2-1.5-4.4-1.4-5.2.3-12.9,4-5.1,7.9,10.6,5.3,34.7,8.4,48.3,13.1,65.8,22.7,80,59,61.9,126.2-16.1,59.9-44.6,121.1-62.4,181.3-2.3,7.9-9.7,30-9.7,36.6,0,10.7,5.9,6.7,9.4-.3,16.4-32.2,24.5-79.4,40.4-113.2l4.1-1.7c-3.1,43-9.8,85.6-13.4,128.6-10.4,123.3-13.4,247.4-25,370.4-3.4,36-15.8,66.1-9,103.1,2.4,12.9,8.4,26.4,10.5,39.4,2.8,17.6,3.9,20.1-14.9,25.4-3.6-39.4-20.8-68.9-17-110.1,2.1-23,13.2-46.1,15.1-69.4,3.2-40.6-9.5-72.6-13.4-111.3-4.8-47.8,6-100.9-1.7-146.2-.6-3.6,1.6-7.5-4.1-6.4-5.9-15.4-6-34.5,0-49.9l3.8,5.8c-.9-6.3,1.6-12.1,2-18.2,5.8-93.2,1-161.8-64.3-233.3-3.4-3.7-10-5-10.7-10.6,1.1-5.5,6-39.7,7.9-41,5-3.4,19.9,7.4,24.7,8.6s3.5.9,5.8-2c-10.7-19.9-40.6-24-60-15.9s-7.9,2.6-7.1,7.3l21.1,1c-5.6,2.8-13.5,17.7-17.3,19.3s-14.7-1.2-19.9-.8c-46.1,4-129,55.2-178.7,72.7-48.9,17.3-105,36.8-156.4,21.1,15.2-32.3,21.3-66.7-2-96.9-10.3-13.4-21.8-12.1-.9-27.9s39-14.7,57.1-21.6,56-25.7,76.1-40.9,10.2-11.2,12.7-12.3,6.7,11,6.4,12.3c-1.2,4.8-20.2,8.1-14.2,30,3.2,11.6,13.7,14.1,19.4,20.9,3,3.7,3.2,8.1,5.7,11.6,21.1,29,78,24.7,108.9,16.8s3.1-3.3,3.3-3.3c12.6-4.1,25.4-8,38.4-11.5,22.5-8.3,51.6-20.1,63.7-42.8s3.9-15.3,6.8-22,8.9-9.2,12.3-14.5c14.1-21.9,13.5-41.9-13.8-49.3-3.4-6.1,4.6-9.8,7.7-3.8,26-5.3,41.9-3.7,67.2,3.8Z"/>
  <path class="st16" d="M1519.8,1030.6c71.1,200.9-11.8,433.1-195.7,539.3-.2-17.7-9.9-34.7-13-51.3-5.7-30.5,6.2-69.7,9.1-101.2,8.7-96.2,11.2-193.4,19.2-289.8,5.1-60.6,15.6-124.6,19.2-184.3s-6.8-66.1,15.4-93.1c-.3,11.8.5,23.8,0,35.6-1.1,32.6-5.8,64.8-1.8,97.5,11.1,89.4,90.4,124.3,147.5,47.3Z"/>
  <path class="st14" d="M1130.3,1272.4c11.1,40.2-6.7,84.7.9,124.9,3.8,20,14.8,36.7,16.5,58.4,3.5,44.3-21.9,124.8-10.6,158.3,2.1,6.3,7,11.1,8.6,17.3-56.9,5.2-113.2,1.6-168.8-11.6-3.1-19.1,7.3-35.3,12-52.1,8.4-30.5-15.3-46.5-11.9-81,3.3-33.3,29.5-64.4,32.4-90.4,2.6-23.7-8.1-26-15.7-43.8-9.4-22.2-4.8-40.8.4-63.2l2.3-2.1c20.2-2.9,42.7-9.5,57.2-24.3-28.4,3.2-51.7,19.4-80,6.1-38.5-18.1-57.5-60.5-41.1-100.9,59.6-3.9,104.7-41.9,143.2-83.6,1.8-2,15.9-22,18.2-19.2l4,54.7c-4,24-2.4,49.5,3.4,73.2,1.6,6.5,9.4,23.6,9.5,27,0,5.4-19.6,21.1-16.9,23.6,5.2,0,9.2-3.4,13.4-5.7,6.8-1,15.7,13.1,19.6,19.4,5.7,6.5,6.9,11.5,3.5,15.2Z"/>
  <path class="st16" d="M1274.2,1092c0,16.2,0,33.2,0,49.9.3,52.6-7.3,105.6-1.7,158.1,2.9,26.9,13.1,56.1,13.2,82.8.2,41.4-20.7,78.9-17.3,121,1.3,16.6,24.5,79.5,15.5,88.3-38.8,18-80,29.8-122.2,37.3-10.6,0-18-26.2-17.8-35.1,1-54,24.8-100.2,10.4-158.6-3.2-13.2-12.6-28.8-14.2-41.4-4.7-35.8,6.7-74.1-3-110.2-1.2-4.4-2.4-9.2-6.7-11.5-3-11.1-16.3-25.1-23-34.5,3.3-1.8,7.2-7.8,11.3-5.5.6.4,5.7,9.7,8,12.1,31.8,33.6,73.1,28.4,96.2-11.1,46.2-79,21.8-226.7-17.3-305.8-3.2-6.5-18.6-28.9-19.2-32.7-1.4-8.5,14.3-37.7,15-48.5,2.4-1.8,8.7,5.7,10.6,7.6,69.2,72,62.8,145.3,62.3,238Z"/>
  <path class="st6" d="M1370.1,710.1c-2.5-2.7-1.5-3.7,1.9-1.9,14.7,10.3,29.4,0,39.3-11.5,13.6,15.5,31.4,28.9,52.8,20,56.7,68.6,86.5,173,64.6,260.6-11.6,46.4-48.8,101.6-103.8,76.1-60.1-27.9-35.9-138.7-39.5-190.8-.7-9.9-5.9-24.7-5.9-32.6,0-9.7,8.3-29.7,9.4-42.4,2.2-25.7-2.5-56.8-18.9-77.5Z"/>
  <path class="st6" d="M1136.7,1239.1c-39.1-37.6-28.5-100.1-31.4-148-3.1-51.4-18.7-104.5-49.7-145.6,7.1-4.8,40.4-34.7,45.2-35.6,7-1.2,30.6,38.9,34.3,45.9,14.1,26.9,26.2,60.5,32.6,90.2,3.9,17.8,5.1,36.4,9.6,53.7,5.7-11.6,2.3-29.9.7-42.9-6.5-55.1-28.5-113.4-66.8-154-.6-3.5,31.8-30.9,37-35.1,41.6,39.9,65.1,99.3,77.4,155,12.5,56.3,19.1,153.5-11.3,204.4-18.2,30.3-51.3,37.5-77.6,12.2Z"/>
  <path class="st16" d="M1174.4,817.6c-33.8,39.9-74.9,77.3-117.3,108.2-74.4,54.2-181,104.1-275.1,97.1-7.3-.5-35.2-4.8-39.4-8.5-11-9.7-16.5-48.6-6.7-58.7,2.1-2.2,25.1-3,31.8-4.7,21.5-5.2,40.3-21.3,51.9-39.3,33.4,15,64.2,9.8,98.1,1.3,42.7-10.7,86.9-27.6,126.9-45.8,41.7-19,82.7-47,129.8-49.6Z"/>
  <path class="st16" d="M996.4,742.2c-3.7-3.5-13.4-31.5-14.9-37.9-32-133.7,125.3-191.7,187.4-76.1,6.1,11.4,16.8,40.1,16.9,52.4,0,4.3-1.1,4.7-3.7,7.5-26.7,28.4-98.7,56-137.3,58.4-7.1.4-45.1-1-48.4-4.3Z"/>
  <path class="st6" d="M781,689c2.6-1.4,3.5-.8,1.9,1.9-11.4,14.9,4.1,26.5,17.3,31.7-82.6,41.8-176.5,140.1-138.5,240.2,7.2,19.1,17.5,18.8-3.5,36.1-37.6,31.2-77.1,9.3-85.5-35.4-20.9-111.2,109.3-243.6,208.3-274.5Z"/>
  <path class="st6" d="M1205.1,654.4c-2-.5-4.8.2-7.7-.8-7.1-2.5-14.5-27.5-19.5-36.2-30.5-52.7-98.7-82.7-155.7-52.8-9.5,5-16.4,13.2-25.2,18.9-7.5-13.7-15.2-24.2-26.9-34.5s-13.3-7.4-15.7-10.2c-10.6-12.3,19.4-24.9,29.9-25.2s21.4,6.2,21.4,13.3v36.5c0,.5,2.1,3.1,3.8,1.9,6.2-4.2,6.1-30.8,5.7-38.4-.4-8.2-7.2-30.6-.8-35.4s32.8-9.3,36.4-4.1-1.4,21.6-1,27.9,2.9,22,6.7,24,2.7-2.9,2.9-4.8c.6-8.2-2.8-17.4,3.9-23,14.5-12.2,47.4-3.4,53.8,15.2,2.7,8,.9,9.5-.6,16.9s-3.5,3.7,1.5,3.4c11.4-17.7,18.8-38.2,30.9-55.5,1.7-2.4,5.2-9.9,8.6-9,10.5,2.8,32,30.2,32.5,40.7.5,9.8-26.2,28.1-25,41.1,3.9.5,6.2-3.3,8.7-5.7,8.4-8.3,36.4-43.5,46.2-44.2s34.2,34,36.5,46c3.3,16.9-20.5,16.2-33.8,24s-13.5,6.3-9.6,10.6,36.2-17.4,44.1-12.5c11.3,7,11.3,44.2,4,55.3-4.6,6.9-41.1-1.4-48.1,12.8-3,.6-5.9.8-7.7,3.8Z"/>
  <path class="st16" d="M903.5,537.9c32.7-1.8,63.8,13.5,78.2,43.5,9.6,20-1,22.8-7.7,40.4-3,7.8-5.6,24.4-8.9,29.5-13.8,21.3-85.1,43.6-110.1,45.4-39.7,2.8-58.7,1.4-56.8-43.3s49.2-112.4,105.2-115.5Z"/>
  <path class="st16" d="M1546.7,938.5c2.1-26.2.8-54.5-3.8-80.6,16.8-11.5,34.8-16,51.8-1.9-8-45.1,47.5-71,83.8-52.2,16.9,8.8,36.4,35.9,45.1,52.8,11.1,21.8,11.6,32-7.1,49.2-20.1,18.4-104.7,67.4-130.4,67.4-20.1,0-29.8-20.4-39.3-34.7Z"/>
  <path class="st16" d="M988.2,1287.8c-7.5,23.2-11.9,45.1-2.3,68.5,10.8,26.3,22.2,21,8.9,54.3-12.7,31.9-33.6,63.3-27.3,100.4,2.1,12.5,15.1,29.7,14.7,42.5-.3,9.8-9.5,26.8-12.3,37.6s-2.9,24.7-5.7,24.9l-62.4-23c5.8-12.9,19.3-24,19.3-39.3s-21.4-30-19.4-53.7c1.8-20.7,30.5-59.5,39.3-81.6,6.6-16.5,13.9-42.8,12.5-60.4s-13.2-31.1-15.1-46.3c-1.3-10.2-.2-21.5,1.7-31.5,15.3,5.3,31.7,7.9,47.9,7.7Z"/>
  <path class="st6" d="M763.3,797c77.1-10,85.4,101.7,15.6,136.5-105.6,52.7-121.3-122.7-15.6-136.5Z"/>
  <path class="st16" d="M577.6,859.8c-6.5,14.6-12.1,34.1-15.4,49.9-2.7,1.7-4.1,3.1-1.9,5.8-2.5,16.1-2.5,29.9,0,46.1.6,3.2,0,4.5-1.9,3.8-22.1-2.5-40.7-5.6-62.2-11.7s-77.9-19.4-56.4-52.3c12.3-18.9,27.6-6.2,38.6-9.3s18.8-27.7,18.2-33-12.9-12.9-15.3-19c-6.2-15.2,4.1-37,22-35.6,15.5,1.2,50.8,29.7,62.9,40.8,4.2,3.8,10.2,8.6,11.5,14.4Z"/>
  <path class="st16" d="M961.4,1272.4c-59-10.3-103.2-59.6-122.8-114.1-12.8-35.5-17.7-77.8-13.5-115.3.3-2.8.2-4.9,3-6.6,8.5-2.7,8.1,20.4,9.5,26.9,8.8,40.5,25.3,80.4,66.3,96.8,4.4,1.8,22.5,5.7,22.7,7.6-15.9,42.4,3.9,77,34.8,104.6Z"/>
  <path class="st14" d="M1097.6,792.6c-25.7,3.9-75.5,6.4-96.9-9.6s-5.4-5-6.7-7.6c4.1,1.6,30.8,1.2,30.7-2.9s-27.2-6.5-32.2-8.1c-15.5-4.9-34.4-22-13.1-33.1,8.3,5.7,6,9.2,3.1,17.1,55.8,17.8,114.6,5.9,164.4-22.7,8.9-5.1,56.5-37.5,56.4-45.5s-11-5.7-7.8-14.4c40.6,3.6,10.9,38.3-5.7,52.8-4.2,3.7-24.6,15.8-25,17.2s-.6,4.6,1,4.8c7.8.9,19.7-8.1,26.9-11.5,5.4-1.7-9.5,18.7-11.2,20.4-7.1,7.1-36.4,26.5-45.4,31.4-11,6.4-25.7,10.3-38.4,11.5Z"/>
  <path class="st16" d="M938.4,717.8c3.4-1.1,4.7-.5,3.8,1.9-22,13.9-49.4,27.3-73.8,36.5s-38,7.8-56.7,23.9c-3.1,2.7-6.7,9.7-8.9,10.4-3.4,1.1-23.4-6-32.2-5.6-35.4,1.6-60.9,26.1-78.1,54.4-1.5,2.5-3.1,8.7-3.5,9-1.4,1-5.4-1.4-5.7-3-.8-3.8,24.3-38.7,28.8-44,14.6-17.1,36.4-35.9,55-48.6s36.5-23.6,42.3-24.9,35.2,1.8,46.6,1.5l5.7-4.1c17.9-1.4,35.6-4.1,53.1-8.2l6.4,2.7c5-1,12-.8,17.3-1.9Z"/>
  <path class="st6" d="M1345.2,462.5c11.7-28.3,2.4-56.3-15.3-79.6,1.3-2.2,2.7-2.3,4.9-2.8,10.5-2.5,29.4-4.3,40.3-4s28.3,2.5,33.4,5c15,7.3,17.3,34.9,15,49.3-1.1,7-12.1,32.1-19.7,32.1h-58.5Z"/>
  <path class="st6" d="M1391.2,529.7c18.1,2.2,60.6,15.4,66.3,34.5,5.9,20.1-9.6,62.6-34.1,59.2-5.8-.8-46.6-16.5-47.4-20,12.4-23.5,20.4-46.8,15.2-73.7Z"/>
  <path class="st6" d="M1414.3,629.5c18.6,6.7,29.2-6,43.2-15.4,32.6,18.8,35.4,68.6,3.5,90-14,9.4-20.8,5.1-33.1-4.6-18.1-14.4-8.3-13-6.1-30.8.6-5.3.8-13.7.2-19-.9-8.5-5-12.8-7.7-20.1Z"/>
  <path class="st6" d="M1051.6,433.7c-22-9.3-41.2-7.2-61.5,5-5.3-5.5-9.9-14.3-15.2-19.4s-10.2-4.5-11.3-7.9c-6.2-18.7,10.3-40.2,28.4-43.9,41-8.6,53.7,34.9,59.6,66.3Z"/>
  <path class="st6" d="M994,332c-28.5-2.1-52.3,11.7-68.1,34.5-5.9-12.1-31.5-27.5-33.5-39.4-4.6-28.4,30.4-37.8,52.4-35.2,21.6,2.6,38.4,22.7,49.1,40.1Z"/>
  <path class="st6" d="M1237.7,487.5c-3.8-25.1-22.7-41.7-44.1-52.8,14.9-11.8,46.6-40.7,66.2-27.8s26.6,41.3,17.8,58.1-31.3,16.3-39.9,22.5Z"/>
  <path class="st14" d="M733,1011.4c-41.4-14-72.2-60.5-69-104.6.5-6.5,11.1-54.8,16.3-54.7,7.8.1,1.2,16,1,20.1-2.3,40.6,11.8,65.1,49.6,80.5-9.3,19.4-6,39.5,2.2,58.6Z"/>
  <path class="st6" d="M1243.9,395c-1.4-1-7.1-25.3-12.2-32.9s-13.1-12.1-11.2-14.7c17.5-7.2,51-26,69-14.3,22.6,14.6,11.3,70.9-18.2,70.1-5.3-.2-6.9-4-10.4-4.9s-15.4-2.1-16.9-3.2Z"/>
  <path class="st16" d="M909.6,431.8c-13.3-.7-28.8,5-38.3,14.4-3.3,3.2-9.7,16.2-10.6,16.4-1.7.3-3.2-.2-4.7-1-2.3-1.3-24.8-19.2-26.7-21.3-10-10.8,5-33,14.2-41.1s26.5-17.4,37.4-12.4,31.8,42.5,28.8,45Z"/>
  <path class="st6" d="M1086.1,324.3c-16.3-7-36.8-4.8-53.1,1.6-9.1,3.6-16.5,10.2-25.5,13.8-10.9-23.3-18.1-50.2,10.7-63.1,36.2-16.2,62.5,14.8,67.9,47.8Z"/>
  <path class="st6" d="M1107.2,320.5c2.1-23.8-2.1-59.5,31.7-59.5,34.5,0,52.1,45.4,38.4,72.9-19.5-17.1-45.6-20.4-70-13.4Z"/>
  <path class="st16" d="M1262.7,562.3c-4.1-22.6-17.1-42.5-36.4-54.7,0-2.5,35.3-23.8,40.2-25,24.4-6.4,42.3,37.9,38.4,57.7s-9.7,6-14.8,8.3c-9.3,4.3-18.1,9.8-27.5,13.8Z"/>
  <path class="st16" d="M1120.7,522c-10.6-22.2-40.9-29.4-61.4-15.4.9-12.6,3.9-44.5,14.3-51.9,22.3-15.8,68.2,7.3,64.2,35.4-.5,3.7-15.2,33.2-17.2,31.8Z"/>
  <path class="st6" d="M875,381.9c-29.5,1.5-51.9,22.7-55.7,51.8-27.9-8.9-40.8-30-26-57.7s62-20.3,81.7,5.8Z"/>
  <path class="st16" d="M1285.7,464.4c4.4-19.6,1.6-36.3-7.7-53.7,25.3-2.6,32-48.2,53.3-12.1,9.5,16.1,15.5,45.8,5.8,62.6s-6.6-.7-12.5-2.1c-12.6-3-26.5,3.5-38.9,5.3Z"/>
  <path class="st14" d="M855.8,729.3c3-3.5.9-5.2-2.9-5.8-18.3-2.8-37.5-2.1-54.1-13.1-4.4-2.9-14.2-12-5.4-15.7s9.1,5.9,13.4,7.7c38.7,15.9,94.8-.5,130.1-19.6,7.2-3.9,20-14.7,25.4-16.9s2.6.9,2.8,2.8c.4,3.1,1.8,16.4,1,18.2-1.4,3.2-15.4,13-19.2,15.5-8.3,5.3-22.3,8.3-26,17.2-23.1,4.4-41.1,8.9-65.2,9.6Z"/>
  <path class="st16" d="M838.6,529.7c-10.2-4.7-35.5-.9-41.2-7.7-9.1-11-8.8-30.9-3.3-43.5,14.9-34.2,52.2-15.4,69.4,6.1-15.5,9.9-26.5,26.2-24.9,45.1Z"/>
  <path class="st6" d="M1349,667.9c23.8-8.4,33-29.1,30.7-53.7,16.4,6.8,35.2,22.3,35.7,41.6.5,17.1-13.4,51.2-34.4,46.3-15.7-10.2-29.3-22.7-45.5-32.2-4-4.9-1.2-4.6,3.8-1.9.6,0,1.3,0,1.9,0,2.3,1.3,4.9,1.3,7.7,0Z"/>
  <path class="st16" d="M1093.8,380c-8.9-10.5-45.8,2.1-48.1,1s-5.3-7.9-8.6-10.6c-9.4-7.9-34.3-12.7-20.2-27.9,5.5-6,25.7-15,33.8-16.1,7.7-1,31.4,0,37.2,4.7s5.8,18.4,5.8,21.1v27.8Z"/>
  <path class="st6" d="M944.1,533.5c-7.8-3.5-34.8-3.6-39.4-7.6s-14.4-25.8-18.5-31.4-21.2-23.2-21.8-26.1c-2.4-10.9,22.4-29.1,32.8-30.7,27.1-4.2,10.4,10.1,8.7,24-3.3,26.8,30.3,47,38.2,71.8Z"/>
  <path class="st16" d="M1159,477.8c-1.6-2.1,23.1-33.8,26.9-35.5,13.6-6.1,47.5,31.1,46,46.1-.7,7-30.3,24.1-35.5,31.7-8.4-16.7-17.7-37-37.4-42.2Z"/>
  <path class="st6" d="M802.1,456.8c-2.1,7.4-9.5,11.3-13.1,18.6-8.2,16.7-4.7,36.4,3.5,52.4-26.4,12.1-49.7,2.9-51.8-27.8-2.7-39.4,30.3-43.2,61.4-43.1Z"/>
  <path class="st6" d="M1455.8,469c14.3,14.4,13.6,37.6,5.5,55-2,4.2-6.3,13.2-11.5,13.4s-30-15.9-37.4-16.3c8.8-12.3,10.4-25.5,9.5-40.3s-6-17.8-1-22.1c7.9-6.9,28.5,3.9,34.9,10.3Z"/>
  <path class="st16" d="M1307.8,579.6c21,4.5,12.8,63.8-2.1,66.7s-27.7-7.4-37.2-5.3c8-21.1,8.8-41-1.9-61.4,11.9,1.7,30.2-2.3,41.3,0Z"/>
  <path class="st16" d="M1001.7,510.5c-19.7-9.3-36.8-.6-52.5,11.4-1.6-.3-14.9-20.4-15.6-22.8-9.4-30.8,49.8-50.7,60.6-26.1,2.1,4.8,9.6,34.7,7.5,37.5Z"/>
  <path class="st16" d="M1162.8,376.1c-7.1-.4-12.1-5.8-19.5-8.2-12.9-4.1-26.7-4.3-39.9-1.4-1.3-1.4,1.4-34.3,3.7-37.6,11.1-15.7,68.9-.9,69.2,15.4.1,7.1-12.2,23.5-13.5,31.6Z"/>
  <path class="st16" d="M1383.5,527.9c3.8,16.8.3,36.3-6.1,52.2-9.7,23.8-9.8,12.6-26.4,4.3s-15.9-7.3-24.2-10.5c3.2-4.6,4.1-25,5.2-26.7s7.3-1.3,10.3-4.1,5.4-14.3,8.7-16.3c7-4.3,24.1,2.5,32.6,1.1Z"/>
  <path class="st6" d="M1141.8,477.9c-9-28-40.3-39.2-67.2-30.7,4.5-13,16.9-36.6,31.6-38.4,27.3-3.3,47.5,15.8,45.1,43.2s-6.2,28.4-9.5,25.9Z"/>
  <path class="st6" d="M1310.6,541.2c1.4-27.4-9.9-48.5-30.7-65.2,24.6-6.2,43.9-22.4,57.3,8.9,11.2,26.3,9,57.4-26.6,56.3Z"/>
  <path class="st6" d="M1316.4,650.6c11.9-20.7,17.8-42.1,7.7-65.2,29.3,4.1,63,29.3,41.1,61.3-15.9,23.2-28,10-48.8,3.9Z"/>
  <path class="st11" d="M986.3,458.7c-23.8-7.9-54,5.1-59.5,30.7-28.2-17.5,1.6-65.5,26.4-68.7,13.4-1.7,31.5,25.8,33,38Z"/>
  <path class="st19" d="M1364.4,470.2c16.2,0,31.8,4.5,48,0,3.7,11.1,3.9,47.4-10.9,49.5l-42.8-3.5c-2.3-2.1,5.7-16.1,5.7-18.2v-27.8Z"/>
  <path class="st19" d="M1053.5,479.8c-15.2-3.7-29-.8-43,5.7-1.8-.4-13.6-30.6-14.2-34-2.5-15,28.4-17.1,38.8-15.6,25.1,3.4,17.3,25,18.4,44Z"/>
  <path class="st19" d="M999.3,340.2c2.6,2.5,5.1,13.1,8.2,16.8-34.3-2.2-58.1,21.2-53.7,55.7-1.6-.3-5.1.4-5.7,0s-3.8-13.1-5.5-16.6c-2.4-5.2-10.2-17.6-10.9-21.6-3.4-17.9,53.2-48.2,67.7-34.2Z"/>
  <path class="st19" d="M1197.4,414.5c-.3-15-11.5-25.7-19.1-37.2.5-2.6,32.2-24.5,35.1-23.9,8.4,1.6,24.8,31.3,23.6,41.1-4.6,3.5-37.8,21.9-39.7,20Z"/>
  <path class="st11" d="M1159.1,456.8c6.3-19.1-1.5-34.2-15.3-47,5-3.6,23.3-26,27.5-25.6,8.6.7,22,28.3,20.5,37s-27.4,29.1-32.6,35.6Z"/>
  <path class="st11" d="M898.1,529.7c-11.2-3.4-33.4,12.4-41.2,11.6s-11-6.7-11.6-7.8c-6.1-10.9,11.5-46,22.7-43.8,5.6,1.1,26.4,33.2,30,40Z"/>
  <path class="st11" d="M1063.1,441.4c-2.7-18.4-4.3-37-13.4-53.7,14.6-5.1,29-4.8,44.1-1.9.6.7-1.3,15.8-2,18-1.8,6-9.5,11.1-13.7,17s-7.5,13.7-11.1,20.6c-1.9,3-3.2,3.7-3.8,0Z"/>
  <path class="st11" d="M930.7,395.3c-5.9-2.4-20.6,11.4-22.1,11.4s-19.2-28.1-25-30.6c-4.5-8,12.7-26.8,20.2-22,4,4.7,29.9,38.1,26.9,41.3Z"/>
  <path class="st11" d="M1101.5,399.2c2.6-6.3.5-16.6,2.2-21.8,3.2-9.8,48.7-5.2,51.4,3.8s-16.1,22.9-18.4,23.4c-4.1.8-26.6-10-35.2-5.4Z"/>
  <path class="st17" d="M562.3,909.7c-.5,2.4-1.8,5.1-1.9,5.8-11-4.2-37.2-5.1-46.1-12.5s.5-17.2,4.7-20.3c10.8-8.1,34.8,21.1,43.3,27Z"/>
  <path class="st5" d="M1274.2,570c13-11.6,31.9-15.5,48-21.1,6.1,37.7-25.3,16.5-48,21.1Z"/>
  <path class="st23" d="M916,405.6c5.5-5.6,15.9-10.2,20.9-2,10.3,16.9-8.8,16.3-16.7,28.2-4.5-8.4-12.1-18.1-4.1-26.2Z"/>
  <path class="st0" d="M1343.3,685.1c2.5,2.7,1.5,3.7-1.9,1.9-23.6-12.8-50.4-15.6-76.8-17.3,0-1.3,0-2.6,0-3.8,8.3,2.4,17.8-1.8,25.8-2,20-.5,36.7,10.8,52.8,21.2Z"/>
  <path class="st4" d="M1356.5,470.4c4.7,4,.8,27.3-1.5,33.6-3.7,10.2-5.8-10-7.3-14.2-2.5-6.9-6.6-12.7-8.2-19.6,3.5.7,15.5-1.1,17.1.2Z"/>
  <path class="st13" d="M1372,708.2l-1.9,1.9c-4.5-5.6-22.3-19.5-28.8-23l1.9-1.9c11.5,7.4,19.6,16.5,28.8,23Z"/>
  <path class="st7" d="M1136,783c-14.5,5.3-23.9,7.6-38.4,11.5v-1.9c9.6-1.5,30.2-7,38.4-11.5v1.9Z"/>
  <path class="st21" d="M1339.4,667.9c-1.6.2-3.2,0-3.8,1.9-6.1-3.6-12.9-6.3-19.2-9.6-2.5-2.5-1.5-3,1.9-1.9,7.4,2,15.3,4.3,21.1,9.6Z"/>
  <path class="st2" d="M944.1,715.8c.6-.8,1.2-.8,1.9,0-.8.6-1.7,2.5-3.8,3.8l-3.8-1.9c1.1-.2,3.3-2.9,5.8-1.9Z"/>
  <path class="st3" d="M1318.3,658.3l-1.9,1.9c-2.6-1.4-6.4-1.3-5.7-3.8,3.4-1.6,6,1.4,7.7,1.9Z"/>
  <path class="st10" d="M562.3,967.3c-1.4.2-3.3-1.9-3.8-1.9l1.9-3.8c0,.6,1.4,3.4,1.9,5.8Z"/>
  <path class="st22" d="M1066.9,441.4c-.9,1.6-1.7,5.8-2.9,5.8-2-.6-.7-4-1-5.8h3.8Z"/>
  <path class="st8" d="M781,689c1.4-.4,2.6-3.1,5.8-1.9.2,2.3-3.1,2.8-3.8,3.8l-1.9-1.9Z"/>
  <path class="st21" d="M1349,667.9c-1.9.7-5.4,4.8-7.7,0,2.5-.2,5.1.1,7.7,0Z"/>
  <path class="st18" d="M1279.9,654.4c1.2.3,3.9-1,3.8,1,.7,4.4-1.2,2.3-3.8,2.9v-3.8Z"/>
  <path class="st9" d="M944.1,715.8c.9-3,6.7-3,5.7,0-1.1.3-3.3-.4-3.8,0h-1.9Z"/>
  <path class="st16" d="M1260.7,1782.9c-.7-.6-4.6,0-5.8.9-3.5,2.6-4.5,50.3-5.9,59.4-12.4,83.8-53.8-46.4-64.1-46.8s-2.9,7.7-2.7,10.3c2.3,25.2,37.5,81.3-10.7,80-14.4-.4-19.5-9-24.9-21.3-11.1-25.1-30.1-112.8-27.6-138.9s20.7-34.5,43.4-18.9,34.5,41.5,50.7,62.5c1.7,2.1,1.9,4,5.4,3.2,3-24.9,10.2-93.4,40.3-99,9-1.7,16.2,2.3,22,9,17,19.7,40.5,130.3,37.4,156-3.3,26.6-40.7,34.4-49.2,5.5-2.8-9.6-4.1-58.5-8.2-61.9Z"/>
  <path class="st16" d="M1008.9,1693.2c75.4-9.1,105,40.9,96.1,109.6s-44.3,96.6-107.2,80.8-70.7-180.5,11.1-190.4Z"/>
  <path class="st16" d="M1477.1,1549.3c63.4-8.7,133.6,65.9,108.3,127.5-7,17-36.9,53.4-52.2,62.9-24.8,15.5-57.9-22.6-73.8-39.2-13.3-13.9-55.2-59.9-58-76.3-3.7-21.1,5.3-31.5,19.6-44.7,13.7-12.6,37.6-27.6,56.2-30.2Z"/>
  <path class="st16" d="M489.3,1253.2c-.9,0-1.9-.3-2.8,0-1.5.5-18.5,17.2-23.4,20.7-15.7,11.2-68,38.3-73.4,5s36.1-39.4,60-56.8c5.7-4.2,24.2-20,8-20.9-18.6-1.1-54.7,17.7-69-3.8s2.3-35.2,22-41.2c28.6-8.7,114.4-14.6,142-5.7,7.1,2.3,13.8,6.7,17.7,13,10.6,17.3,9.4,73.2,1.1,92.1-14.9,33.9-69.1,31.9-82.1-2.4Z"/>
  <path class="st16" d="M1762.8,969.9c25.4,25,30.1,79-.3,103s-108,39.6-136.3,36.5c-22.4-2.4-33.2-27-14.3-41.1,20.7-15.4,99.4-25.1,107.4-38.4s3.2-14.1-3.4-16.1c-16.6-4.9-66.3,13.2-86.5,16.4s-44,7.2-46.4-17.9c-2.3-24.4,35.7-34.5,53.6-40.1,33.5-10.4,98.1-29.7,126-2.2Z"/>
  <path class="st16" d="M617.5,1424.5c18.8-2.2,33.3,15.8,23.2,32.8-15.2,25.5-62.5,42.9-83.3,64.5s-10.9,22.7,2,23.3c20.8,1,75.5-53,103.9-55.8,18.1-1.7,28.2,17.1,21.7,33.3s-55.7,49.2-72.9,59.5c-34.9,20.9-70,40.1-102.5,3.1-23.2-26.4-31.8-57.5-8.6-87.3s90.1-70.3,116.6-73.5Z"/>
  <path class="st16" d="M609.6,1372.9c7.7,7.7,8.6,22.3,2.6,31-12.1,17.5-74.5,37.1-96.4,43.7-24.2,7.3-79.4,30.1-82.7-10.4s43.2-27.4,49.6-38.1,0-18-2.8-21.7c-9.7-13.1-53.8,23-68.9-4.5s-4.5-22.6,4.6-31.4c15.5-15.1,115.2-48,138.2-49.9,10.9-.9,26.7-1.5,33.3,8.9,27.7,43.1-69.1,46.3-74.2,63.5-2.3,7.9,3.3,21.3,12.1,21.8,12,.7,45.2-15.4,61.6-17.2,7.8-.8,17.3-1.5,23.1,4.3Z"/>
  <path class="st16" d="M392.1,1104.8c-10.2-11.2-2.5-33.1,10.9-38.7,17.7-7.4,20.9,5.6,27.5-18.6s-1.3-19.9-16-35.1-7.8-37.4,9.1-40.9c11.2-2.3,21.8,1.9,32.2,5.3,32.4,10.3,102.4,46.3,122.6,73.1,40.4,53.6-61.6,65.2-93.9,67-18.6,1-80.2,1.5-92.4-12.1Z"/>
  <path class="st16" d="M698,1545.4c25-4.3,47.7,12.1,62.9,30.2,15.3,18.3,25.9,42.8,1.9,59.5-23.4,16.3-27.6-24.4-42.7-26.6-17.8-2.6-6.9,35.9-6.3,44.9,4.9,76.9-65.3,96.4-111.2,40.2-15.6-19-28.2-48.6-1.9-65.1,29.4-18.4,36.1,42.7,55.6,30.7,9.9-6.1,4.4-54.1,5.7-67.2,1.9-19.2,15.6-43,35.9-46.6Z"/>
  <path class="st16" d="M1373.5,1622.1c13.8-2,18.8,3.2,23.9,15.5,4.6,11.2,6.2,15.4-4.3,23.3-14.2,10.6-47.1,13.4-30.3,36.3,12.6,17.1,31.9-12.8,46.6-10.3,8.9,1.5,19.2,22.6,15.4,30.7-6.1,13.4-52.9,11.6-30.6,38.4,12.4,14.9,37.2-19.6,51.3-16.9,10,1.9,20.6,25.9,17.8,36.2-3.7,13.7-43.3,35-56.6,41.3s-20,10.5-33.6.9c-20.5-14.3-73.7-114.2-75.8-139.2-.9-11.6.1-17.7,9.7-24.8,7.9-5.9,57.8-30.1,66.5-31.3Z"/>
  <path class="st16" d="M1636.5,1222.9c10.7-1,31.9,6.2,34.6,18.2,3.7,16.8-18.4,21.6-17,41.8,2,27.9,79.5,41.3,84.5,9.5,2.3-15-19.7-44.2,6.9-48.7,60.4-10.2,58.2,79.7,18.8,109-42.9,31.9-142.8,11.4-161.4-41.4-9.4-26.6-.6-85.1,33.7-88.4Z"/>
  <path class="st16" d="M870.8,1656.8c32.9-3.5,93.6,23.6,72.3,64.6-5,9.7-13.1,17.1-24.7,15.4-14.1-2.1-19.9-34.1-46-20.8-20.2,10.3-43.2,75.9-5.5,80,13.7,1.5,39.7-12.6,39,16.7-1.5,59.1-98.9,39.7-114.4-16.3-13.3-48.1,24.7-133.8,79.2-139.6Z"/>
  <path class="st16" d="M1571.1,1403.3c34.4-7,55.4,59.8,70.7,81.9,16.1,23.2,30.6,19.2,49.4,33.1,16.2,12.1,8.7,30.2-1.7,43.6-29.6,38.1-47-8.4-75.5-16.2-26.5-7.3-95.3,4.5-111.1-21.3-6.9-11.3-3.2-21.6,4.5-31.4,22.4-28.5,58,3.2,83.1,5.4,13,1.1-.3-14.4-4.4-18.8-11.6-12.7-38.5-28.5-37-48.4.8-10.7,11.2-25.7,22.1-28Z"/>
  <path class="st16" d="M1795.5,1198.8c-8.3,8.7-36.3,12.8-48.3,14.1-26.5,2.9-63.5,3.7-90.1,1.9-13.9-.9-40.6-2.6-45.5-17.8-6.3-19.2,6.4-28.9,23.4-33.1,33.2-8.2,70.1-1.9,103.8-7.5,5.3-3.7-4.6-33.4,13.3-40.5,14.6-5.8,40.2-3.9,46,13.6,3.2,9.7,3.5,48.4,2.1,59.5s-2,7.2-4.6,9.8Z"/>
  <path class="st1" d="M1091.3,641.4c38.3-8.8,34.6,57.4,2,51-23.3-4.5-24.2-45.9-2-51Z"/>
  <path class="st15" d="M825.7,644.3c-12-12,3.2-47.5,21.3-35.7s-3.8,53.1-21.3,35.7Z"/>
  <path class="st20" d="M1645.9,856.4c10-2.3,30.8,3.6,27.3,15.6s-28.8,19.4-33,18.3c-10.9-2.8-10.2-30.2,5.8-33.9Z"/>
  <path class="st12" d="M1588.3,892.8c11-3.3,26.9,7.2,20.8,16.9s-15.9,8.9-17.8,9.2c-12.9,2.2-15.3-22.5-3-26.1Z"/>
  <path class="st6" d="M1018.4,1746.8c47.1-10.8,36.2,83.2,5.4,86-40.9,3.8-28.8-80.7-5.4-86Z"/>
  <path class="st6" d="M1484.9,1601c23.1-1.8,53.9,35.2,49.5,57.3-1.6,8.1-10.7,21.6-19.7,17.7-8.6-3.7-37.9-36.6-44.6-45.6s-6.1-7.8-6.9-10.5c-2.9-9.1,13.7-18.2,21.9-18.8Z"/>
  <path class="st24" d="M533,1199.9c5.8,5.8,0,21.7-7.7,25-19.2,8.2-30.9-18.9-22.6-24.6s26.6-4.1,30.3-.4Z"/>
  <path class="st12" d="M463.7,1038.4c6.3-2.1,46,16,44.8,21.9s-42,6.3-48,2-1.9-22.2,3.2-23.9Z"/>
</svg>