<?xml version="1.0" encoding="UTF-8"?>
<svg id="Layer_1" xmlns="http://www.w3.org/2000/svg" version="1.1" viewBox="0 0 634 652">
  <!-- Generator: Adobe Illustrator 30.0.0, SVG Export Plug-In . SVG Version: 2.1.1 Build 123)  -->
  <defs>
    <style>
      .st0 {
        fill: #3e57a7;
      }

      .st1 {
        fill: #4861ad;
      }

      .st2 {
        fill: #010101;
      }

      .st3 {
        fill: #711a28;
      }

      .st4 {
        fill: #030303;
      }

      .st5 {
        fill: #cc2e46;
      }

      .st6 {
        fill: #c82e45;
      }

      .st7 {
        fill: #cc3247;
      }

      .st8 {
        fill: #8f9494;
      }

      .st9 {
        fill: #fdfeff;
      }

      .st10 {
        fill: #020202;
      }

      .st11 {
        fill: #fff;
      }

      .st12 {
        fill: #293881;
      }

      .st13 {
        fill: #a42439;
      }

      .st14 {
        fill: #a42437;
      }

      .st15 {
        fill: #c42e43;
      }

      .st16 {
        fill: #78666a;
      }

      .st17 {
        fill: #a62639;
      }

      .st18 {
        fill: #cb3046;
      }

      .st19 {
        fill: #731a29;
      }

      .st20 {
        fill: #b8bebe;
      }

      .st21 {
        fill: #c22c43;
      }
    </style>
  </defs>
  <path class="st2" d="M586.5,389.8c-.5,6.9-1.1,13.2-2.6,19.9-1.2,5.1-5.8,15.5-5.8,19.4-1.3,3.3-3.4,6.9-6.2,11-31.2,42.1-74.5,23-80.5-25.8-2.2-17.9.4-35.4,1-53.3.2-6.5-.2-13,0-19.4-12.1,14.7-7.3,33.3-8.4,50.8-1.9,32.6-7.7,67.5-10.5,100.6-4.4,52.6-5.7,105.7-10.5,158.2,0,.2,0,.5,0,.8h-6.3s-9.3,0-9.3,0h-5.5s-72.8,0-72.8,0h-5.9s-73.5,0-73.5,0h-6.1s-27.5,0-27.5,0h-8.4c5.5-11.1,9.5-22.9,7.5-35.7-1.1-7.3-6.1-12.8-6.8-20.4-.7-6.8,0-14.3,1.9-20.9-7.5-4.8-15.5-8.5-22.3-14.3-32.4-27.1-49.6-74.7-42.5-116.3-22.4.6-46.6-3.7-64.4-17.9-1.8-1.5-3.6-4.1-5.3-5.2-1-.7-.9-1.8-2.1,0-.7,1.1-1.5,2.5-2.3,4.3-3.8,2.3-6.8,4.7-12.9,7.2-11.7,4-19.7,6.3-31.5.5-11.4-5.6-15.3-16.2-17.8-27.8-.7,0-1.6-.9-2-1,0,0,0,0,0,0l1-2.1c-1.4-8.8-1.3-16.3,0-25.2-1.2-1.5-.4-2.2,1-3.1,1.8-8.6,4.9-19.3,8.4-27.2,20.3-46,68.4-86.1,115.8-101.6-2.9-21.2,4.9-42.8,19.3-58.2,2-2.1,11.3-9.4,11.5-10.5.8-3.8-15.4-6.7-18.3-6.8-12.4-.3-24.6,9.1-35.8.3-2.1-1.6-4.9-6.7-6.9-6.4-1.7-4.6-2.4-8.5-1.9-9.7-1-9.7,3.4-23.1,12.3-28,.9-.5,9.8-3.3,10.3-3.3,7.5,0,15.7-.5,23,0,.9,0,3.6,2.3,4.7.5-8.8-8.7-22.6-7.7-24.9-22.3-2.2-13.9,5-27.5,18.3-32.5,15.6-5.9,21.8,1.7,34.8,8.1.8-4.4,5.3-9.1,9.5-10.5-19.2-25.9,21.3-43,41.6-30.6,3.6,2.2,5.6,6.1,9.7,7.5,2.5-17,17.3-25.4,33.8-21.7,13.8,3.1,21.2,16.1,26.5,28,3.1-8.1-.6-17.7,4.2-25.1,6.8-10.4,24.5-10.9,34.6-5.3,19.4,10.8,15.4,37.2,8.9,54.5l17.1-10.7c24.7-13.7,54.8-21,52,19,15.6-4.6,42.3-8.6,56.9.2,10.6,6.3,11,27.7,7,38,.3,1.6,8.6,2.6,11.2,3.5,15.9,6,20.1,21.3,15.1,36.7-.6,2.7-.6,4.9-3.8,8.7-.8,0-5.4,5.8-5.6,6.8-.1.7,4.7,8.8,5,13.4.5,5.8-3.2,16.3-2.9,17.7.3,1.5,6.6,6.6,8.1,8.5,10.9,13.9,10.6,32.8-1,46.1-1.3,1.5-3.5.9-3.2,3.1.2,1.3,13.9,17,16.2,20.5,10.3,16,20.4,42,23.7,60.7h0c2.5,14.2,3.2,29.7,2.1,44Z"/>
  <path class="st5" d="M49,405.5c-.7,0-1.6-.9-2-1,0,0,0,0,0,0,.3-.3.7-.4,1-.2.4.2.7.6,1.1,1.3h0Z"/>
  <path class="st0" d="M453.5,421.7c-1.3,4.3-5.3,16.4-5.3,20,0,5.8,3.2,3.7,5.2-.2,9-17.6,13.4-43.3,22-61.8l2.2-.9c-1.7,23.5-5.4,46.8-7.3,70.2-5.7,67.3-7.3,135.1-13.7,202.2,0,.2,0,.5,0,.8h-9.3c.5-2.4.8-4.7,1-7,1.8-22.1-5.2-39.6-7.3-60.8-2.6-26.1,3.3-55.1-.9-79.8-.3-2,.9-4.1-2.2-3.5-3.2-8.4-3.3-18.8,0-27.2l2.1,3.1c-.5-3.4.9-6.6,1.1-9.9,3.2-50.9.5-88.3-35.1-127.4-1.9-2-5.4-2.7-5.8-5.8.6-3,3.2-21.7,4.3-22.4,2.7-1.9,10.9,4,13.5,4.7,1.8.5,1.9.5,3.2-1.1-5.8-10.9-22.2-13.1-32.8-8.7-1.7.7-4.3,1.4-3.9,4l11.5.5c-3,1.5-7.3,9.6-9.4,10.5-.9.4-8-.7-10.9-.4-25.1,2.2-70.4,30.1-97.5,39.7-27.1,9.6-57.4,20.1-85.4,11.5,8.3-17.6,11.6-36.4-1.1-52.9-5.6-7.3-11.9-6.6-.5-15.2,8.3-6.3,21.3-8,31.2-11.8,13-4.9,30.5-14,41.6-22.4,2-1.5,5.6-6.1,6.9-6.7,1.9-.8,3.7,6,3.5,6.7-.6,2.6-11,4.4-7.8,16.4,1.7,6.3,7.5,7.7,10.6,11.4,1.7,2,1.7,4.4,3.1,6.3,11.5,15.8,42.6,13.5,59.5,9.2,1.1-.3,1.7-1.7,1.8-1.8,0,0,0,0,0,0,2.1-.7,4.2-1.4,6.4-2,3.1-1,6.3-1.9,9.5-2.8,1.7-.5,3.3-.9,5-1.4,0,0,0,0,0,0h0c12.3-4.5,28.2-11,34.8-23.4,2.3-4.4,2.1-8.3,3.7-12,1.1-2.5,4.9-5,6.7-7.9,7.7-12,7.4-22.9-7.5-26.9,0,0,0,0,0,0-1.8-3.3,2.5-5.3,4.2-2.1,0,0,0,0,0,0,14.2-2.9,22.9-2,36.7,2.1h0c0,0,.2,0,.3,0,1.3.3,1.2,1.8-.3,2.1-2.9.6-8.3.6-8.4,4.2h0c2,.6,2,1.5,0,2.1-.4,0-1.2-.8-2.4-.7-2.8.2-7,2.2-2.8,4.3,5.8,2.9,18.9,4.6,26.4,7.1,35.9,12.4,43.7,32.2,33.8,68.9-8.8,32.7-24.3,66.2-34.1,99Z"/>
  <path class="st0" d="M293.2,639.7c1.4-13-4.5-14.2-8.6-23.9-5.1-12.1-2.6-22.3.2-34.5l1.2-1.1c11.1-1.6,23.3-5.2,31.2-13.3-15.5,1.8-28.2,10.6-43.7,3.3-21-9.9-31.4-33-22.5-55.1,32.5-2.1,57.2-22.8,78.2-45.7,1-1.1,8.7-12,9.9-10.5l2.2,29.9c-2.2,13.1-1.3,27,1.9,40,.9,3.5,5.2,12.9,5.2,14.7,0,2.9-10.7,11.5-9.2,12.9,2.8,0,5-1.9,7.3-3.1h0c3.7-.6,8.5,7.2,10.7,10.6,3.1,3.5,3.8,6.3,1.9,8.3h0s0,0,0,0c6,22-3.7,46.3.5,68.2.8,4,2.1,7.8,3.4,11.6h-73.5c1.8-4.3,3.2-8.3,3.6-12.1Z"/>
  <path class="st11" d="M444,632.4c0,6.7-1,13.2-2.3,19.6h-72.8c-1.9-4.7-3.9-9.3-4.5-13.4-2.6-19.5,3.7-40.4-1.6-60.2-.6-2.4-1.3-5-3.7-6.3h0s0,0,0,0c-1.7-6-8.9-13.7-12.6-18.8h0c1.8-1,4-4.3,6.2-3,.3.2,3.1,5.3,4.4,6.6,17.3,18.3,39.9,15.5,52.5-6.1,25.2-43.1,11.9-123.8-9.4-167-1.8-3.5-10.1-15.8-10.5-17.8-.8-4.7,7.8-20.6,8.2-26.5,1.3-1,4.8,3.1,5.8,4.2,37.8,39.3,34.3,79.4,34,130,0,8.9,0,18.1,0,27.2.1,28.7-4,57.7-.9,86.3,1.6,14.7,7.1,30.6,7.2,45.2Z"/>
  <path class="st5" d="M490.1,265.1c-1.4-1.5-.8-2,1-1,8,5.6,16.1,0,21.5-6.3,7.4,8.5,17.1,15.8,28.8,10.9,31,37.5,47.2,94.4,35.3,142.3-6.3,25.4-26.7,55.5-56.7,41.6-32.8-15.2-19.6-75.7-21.6-104.2-.4-5.4-3.2-13.5-3.2-17.8,0-5.3,4.5-16.2,5.1-23.2,1.2-14-1.3-31-10.3-42.3h0Z"/>
  <path class="st5" d="M362.7,553.9c-21.3-20.6-15.5-54.7-17.1-80.8-1.7-28-10.2-57.1-27.2-79.5,3.9-2.6,22-19,24.7-19.4,3.8-.7,16.7,21.2,18.7,25,7.7,14.7,14.3,33,17.8,49.3,2.1,9.7,2.8,19.9,5.2,29.3,3.1-6.3,1.2-16.3.4-23.4-3.5-30.1-15.6-61.9-36.5-84.1-.3-1.9,17.4-16.9,20.2-19.2,22.7,21.8,35.5,54.2,42.2,84.6,6.7,30.4,10.4,83.8-6.2,111.6-9.9,16.6-28,20.5-42.4,6.7h0Z"/>
  <path class="st11" d="M383.3,323.8c-18.5,21.8-40.9,42.2-64,59.1-40.6,29.6-98.8,56.8-150.2,53-4-.3-19.2-2.6-21.5-4.7-6-5.3-9-26.5-3.7-32,1.2-1.2,13.7-1.7,17.4-2.5,11.7-2.9,22-11.6,28.3-21.5,18.2,8.2,35.1,5.4,53.6.7,23.3-5.8,47.5-15,69.3-25,22.7-10.4,45.2-25.7,70.9-27.1h0Z"/>
  <path class="st11" d="M286.1,282.6c-2-1.9-7.3-17.2-8.1-20.7-17.5-73,68.4-104.6,102.3-41.6,3.4,6.2,9.2,21.9,9.2,28.6,0,2.4-.6,2.6-2,4.1-14.6,15.5-53.9,30.6-75,31.9-3.9.2-24.6-.6-26.4-2.3Z"/>
  <path class="st5" d="M168.5,253.6c1.4-.8,1.9-.5,1,1-6.2,8.1,2.2,14.5,9.4,17.3-45.1,22.9-96.3,76.5-75.6,131.2,3.9,10.4,9.6,10.3-1.9,19.7-20.6,17-42.1,5.1-46.7-19.3-11.4-60.7,59.7-133,113.7-149.9Z"/>
  <path class="st5" d="M400,234.7c-1.1-.3-2.6.1-4.2-.5-3.9-1.4-7.9-15-10.7-19.8-16.7-28.8-53.9-45.2-85-28.8-5.2,2.7-8.9,7.2-13.8,10.3-4.1-7.5-8.3-13.2-14.7-18.8-2.2-1.9-7.3-4.1-8.6-5.6-5.8-6.7,10.6-13.6,16.3-13.8,3.7-.1,11.7,3.4,11.7,7.3v19.9c0,.2,1.1,1.7,2.1,1.1,3.4-2.3,3.3-16.8,3.1-21-.2-4.5-3.9-16.7-.4-19.3,2.8-2.1,17.9-5.1,19.9-2.3,1.1,1.5-.8,11.8-.6,15.3.1,2.6,1.6,12,3.7,13.1s1.5-1.6,1.6-2.6c.3-4.5-1.5-9.5,2.1-12.6,7.9-6.7,25.9-1.9,29.4,8.3,1.5,4.3.5,5.2-.3,9.2-.3,1.4-1.9,2,.8,1.8,6.2-9.7,10.3-20.8,16.9-30.3.9-1.3,2.8-5.4,4.7-4.9,5.7,1.6,17.5,16.5,17.8,22.2.3,5.4-14.3,15.3-13.6,22.4,2.1.3,3.4-1.8,4.7-3.1,4.6-4.5,19.9-23.8,25.2-24.1,7.5-.5,18.7,18.5,19.9,25.1,1.8,9.2-11.2,8.8-18.5,13.1-1.3.8-7.4,3.4-5.2,5.8,1,1,19.8-9.5,24.1-6.8,6.2,3.8,6.2,24.1,2.2,30.2-2.5,3.8-22.4-.8-26.3,7-1.7.3-3.2.5-4.2,2.1h0Z"/>
  <path class="st11" d="M235.3,171.1c17.9-1,34.8,7.4,42.7,23.8,5.2,10.9-.5,12.5-4.2,22.1-1.6,4.2-3.1,13.3-4.8,16.1-7.5,11.6-46.4,23.8-60.1,24.8-21.7,1.5-32,.8-31-23.7,1.3-29.7,26.9-61.4,57.5-63h0Z"/>
  <path class="st11" d="M285.3,647.5c-.6,1.4-1.2,2.8-1.8,4.2h-27.5c3.6-9,7.6-23.4,6.8-33-.8-9.3-7.2-17-8.2-25.3-.7-5.6-.1-11.7.9-17.2,8.4,2.9,17.3,4.3,26.2,4.2-4.1,12.7-6.5,24.6-1.2,37.4,5.9,14.3,12.1,11.4,4.9,29.6Z"/>
  <path class="st5" d="M158.8,312.5c42.1-5.5,46.6,55.5,8.5,74.5-57.7,28.8-66.2-67-8.5-74.5Z"/>
  <path class="st11" d="M48,404.2c-.2.3-.5.4-.9.3,0,0,0,0,0,0l1-2.1s0,0,0,0c.2.9.1,1.5,0,1.8Z"/>
  <path class="st11" d="M267,572.1c-32.2-5.6-56.3-32.5-67.1-62.3-7-19.4-9.7-42.5-7.4-62.9.2-1.5.1-2.7,1.6-3.6,4.7-1.5,4.4,11.1,5.2,14.7,4.8,22.1,13.8,43.9,36.2,52.9,2.4,1,12.3,3.1,12.4,4.2-8.7,23.1,2.1,42,19,57.1h0Z"/>
  <path class="st0" d="M341.4,310.1c-14,2.1-41.2,3.5-52.9-5.2-1.3-1-2.9-2.7-3.7-4.2,2.2.9,16.8.7,16.7-1.6,0-1.9-14.8-3.5-17.6-4.4-8.5-2.6-18.8-12-7.1-18.1,4.5,3.1,3.3,5,1.7,9.4,30.5,9.7,62.6,3.2,89.8-12.4,4.8-2.8,30.8-20.5,30.8-24.8,0-2.6-6-3.1-4.3-7.8,22.2,2,6,20.9-3.1,28.8-2.3,2-13.4,8.6-13.7,9.4-.2.6-.3,2.5.6,2.6,4.2.5,10.8-4.4,14.7-6.3,2.9-.9-5.2,10.2-6.1,11.1-3.9,3.9-19.9,14.5-24.8,17.1-6,3.5-14,5.6-21,6.3h0Z"/>
  <path class="st11" d="M254.4,269.3c1.9-.6,2.6-.2,2.1,1-12,7.6-27,14.9-40.3,19.9-11.7,4.4-20.7,4.3-31,13-1.7,1.5-3.7,5.3-4.9,5.7-1.9.6-12.8-3.3-17.6-3-19.3.9-33.3,14.2-42.7,29.7-.8,1.4-1.7,4.7-1.9,4.9-.8.6-2.9-.8-3.1-1.6-.4-2.1,13.3-21.1,15.7-24,8-9.4,19.9-19.6,30-26.6,3.7-2.5,19.9-12.9,23.1-13.6,4.2-.9,19.2,1,25.4.8l3.1-2.2c9.8-.8,19.4-2.3,29-4.5l3.5,1.5c2.7-.5,6.5-.4,9.4-1h0Z"/>
  <path class="st5" d="M476.5,129.9c6.4-15.5,1.3-30.8-8.4-43.5.7-1.2,1.5-1.2,2.7-1.5,5.7-1.4,16-2.3,22-2.2,3.6,0,15.5,1.4,18.2,2.7,8.2,4,9.4,19.1,8.2,26.9-.6,3.8-6.6,17.5-10.8,17.5h-32,0Z"/>
  <path class="st5" d="M501.7,166.6c9.9,1.2,33.1,8.4,36.2,18.8,3.2,11-5.2,34.2-18.6,32.3-3.1-.4-25.4-9-25.9-10.9,6.8-12.8,11.2-25.5,8.3-40.2h0Z"/>
  <path class="st5" d="M514.2,221.1c10.1,3.7,15.9-3.3,23.6-8.4,17.8,10.3,19.4,37.4,1.9,49.1-7.6,5.1-11.4,2.8-18.1-2.5-9.9-7.9-4.5-7.1-3.3-16.8.3-2.9.4-7.5.1-10.4-.5-4.7-2.7-7-4.2-11h0Z"/>
  <path class="st5" d="M316.2,114.2c-12-5.1-22.5-3.9-33.6,2.7-2.9-3-5.4-7.8-8.3-10.6-1.7-1.7-5.6-2.5-6.2-4.3-3.4-10.2,5.6-21.9,15.5-24,22.4-4.7,29.3,19,32.5,36.2h0Z"/>
  <path class="st5" d="M284.8,58.6c-15.6-1.1-28.6,6.4-37.2,18.9-3.2-6.6-17.2-15-18.3-21.5-2.5-15.5,16.6-20.7,28.6-19.2,12,1.4,20.9,12.4,26.8,21.9h0Z"/>
  <path class="st5" d="M417.9,143.5c-2.1-13.7-12.4-22.8-24.1-28.8,8.1-6.5,25.5-22.2,36.1-15.2,8.6,5.7,14.5,22.5,9.7,31.7-2.4,4.5-17.1,8.9-21.8,12.3Z"/>
  <path class="st0" d="M142.3,429.6c-22.6-7.6-39.4-33-37.7-57.1.3-3.5,6-29.9,8.9-29.9,4.3,0,.7,8.7.5,11-1.3,22.1,6.4,35.6,27.1,44-5.1,10.6-3.3,21.6,1.2,32Z"/>
  <path class="st5" d="M421.2,93c-.8-.6-3.9-13.8-6.7-18-1.2-1.7-7.1-6.6-6.1-8,9.5-4,27.9-14.2,37.7-7.8,12.3,8,6.2,38.7-10,38.3-2.9,0-3.8-2.2-5.7-2.7-2-.6-8.4-1.2-9.2-1.8Z"/>
  <path class="st11" d="M238.7,113.1c-7.3-.4-15.8,2.7-20.9,7.9-1.8,1.8-5.3,8.8-5.8,8.9-.9.2-1.8-.1-2.6-.6-1.3-.7-13.5-10.5-14.6-11.6-5.5-5.9,2.7-18,7.7-22.5,4.5-4,14.5-9.5,20.4-6.8,3.6,1.6,17.3,23.2,15.7,24.6h0Z"/>
  <path class="st5" d="M335.1,54.5c-8.9-3.8-20.1-2.6-29,.9-5,2-9,5.6-13.9,7.5-6-12.7-9.9-27.4,5.9-34.5,19.8-8.8,34.1,8.1,37.1,26.1h0Z"/>
  <path class="st5" d="M346.6,52.4c1.1-13-1.1-32.5,17.3-32.5,18.8,0,28.4,24.8,21,39.8-10.7-9.3-24.9-11.1-38.2-7.3h0Z"/>
  <path class="st11" d="M431.5,184.4c-2.2-12.4-9.4-23.2-19.9-29.9,0-1.4,19.3-13,22-13.7,13.3-3.5,23.1,20.7,21,31.5-.6,3.3-5.3,3.3-8.1,4.5-5.1,2.3-9.9,5.4-15,7.5Z"/>
  <path class="st11" d="M354,162.4c-5.8-12.1-22.3-16-33.5-8.4.5-6.9,2.1-24.3,7.8-28.3,12.2-8.6,37.2,4,35.1,19.3-.3,2-8.3,18.1-9.4,17.4h0Z"/>
  <path class="st5" d="M219.8,85.9c-16.1.8-28.3,12.4-30.4,28.3-15.2-4.9-22.3-16.4-14.2-31.5,10.5-19.5,33.9-11.1,44.6,3.2h0Z"/>
  <path class="st11" d="M444.1,131c2.4-10.7.9-19.8-4.2-29.3,13.8-1.4,17.5-26.3,29.1-6.6,5.2,8.8,8.4,25,3.2,34.2-2.3,3.9-3.6-.4-6.8-1.1-6.9-1.6-14.5,1.9-21.3,2.9h0Z"/>
  <path class="st0" d="M209.3,275.6c1.7-1.9.5-2.8-1.6-3.1-10-1.5-20.5-1.2-29.5-7.1-2.4-1.6-7.7-6.6-2.9-8.6,1.6-.7,5,3.2,7.3,4.2,21.1,8.7,51.8-.3,71.1-10.7,3.9-2.1,10.9-8,13.9-9.2,1.9-.7,1.4.5,1.6,1.6.2,1.7,1,9,.6,9.9-.8,1.7-8.4,7.1-10.5,8.5-4.5,2.9-12.2,4.5-14.2,9.4-12.6,2.4-22.4,4.9-35.6,5.2h0Z"/>
  <path class="st11" d="M199.9,166.6c-5.6-2.6-19.4-.5-22.5-4.2-5-6-4.8-16.9-1.8-23.7,8.1-18.7,28.5-8.4,37.9,3.3-8.4,5.4-14.5,14.3-13.6,24.6Z"/>
  <path class="st5" d="M478.6,242c13-4.6,18-15.9,16.8-29.3,9,3.7,19.2,12.2,19.5,22.7.3,9.4-7.3,28-18.8,25.3-8.6-5.6-16-12.4-24.8-17.6-2.2-2.7-.6-2.5,2.1-1,.3,0,.7,0,1,0,1.3.7,2.7.7,4.2,0h0Z"/>
  <path class="st11" d="M339.3,84.9c-4.9-5.7-25,1.1-26.2.6-1.1-.6-2.9-4.3-4.7-5.8-5.1-4.3-18.7-6.9-11-15.2,3-3.3,14-8.2,18.5-8.8,4.2-.6,17.1,0,20.3,2.6,1.2,1,3.2,10,3.2,11.5v15.2h0Z"/>
  <path class="st5" d="M257.5,168.7c-4.2-1.9-19-2-21.5-4.2-.9-.8-7.9-14.1-10.1-17.1-2-2.7-11.6-12.7-11.9-14.2-1.3-5.9,12.2-15.9,17.9-16.8,14.8-2.3,5.7,5.5,4.7,13.1-1.8,14.6,16.5,25.7,20.9,39.2h0Z"/>
  <path class="st11" d="M374.9,138.3c-.9-1.2,12.6-18.5,14.7-19.4,7.4-3.3,25.9,17,25.1,25.2-.4,3.8-16.6,13.2-19.4,17.3-4.6-9.1-9.7-20.2-20.4-23h0Z"/>
  <path class="st5" d="M180,126.8c-1.2,4.1-5.2,6.2-7.1,10.1-4.5,9.1-2.6,19.9,1.9,28.6-14.4,6.6-27.2,1.6-28.3-15.2-1.4-21.5,16.6-23.6,33.5-23.5h0Z"/>
  <path class="st5" d="M536.9,133.4c7.8,7.8,7.4,20.6,3,30-1.1,2.3-3.4,7.2-6.3,7.3-2.1,0-16.4-8.7-20.4-8.9,4.8-6.7,5.7-13.9,5.2-22-.2-3.3-3.3-9.7-.5-12.1,4.3-3.8,15.6,2.1,19,5.6h0Z"/>
  <path class="st11" d="M456.1,193.8c11.5,2.4,7,34.9-1.2,36.4-4.1.8-15.1-4.1-20.3-2.9,4.3-11.5,4.8-22.4-1-33.5,6.5.9,16.5-1.3,22.5,0h0Z"/>
  <path class="st11" d="M289,156.1c-10.8-5.1-20.1-.3-28.7,6.2-.9-.2-8.1-11.1-8.5-12.5-5.1-16.8,27.2-27.7,33.1-14.3,1.1,2.6,5.2,19,4.1,20.5h0Z"/>
  <path class="st11" d="M376.9,82.7c-3.9-.2-6.6-3.2-10.6-4.5-7-2.2-14.6-2.4-21.8-.7-.7-.8.8-18.7,2-20.5,6-8.6,37.6-.5,37.8,8.4,0,3.9-6.7,12.8-7.4,17.3h0Z"/>
  <path class="st11" d="M497.4,165.6c2.1,9.2.2,19.8-3.3,28.5-5.3,13-5.4,6.9-14.4,2.3-4.3-2.2-8.7-4-13.2-5.7,1.7-2.5,2.2-13.7,2.8-14.6.4-.6,4-.7,5.6-2.3,1.7-1.7,2.9-7.8,4.7-8.9,3.8-2.3,13.2,1.3,17.8.6h0Z"/>
  <path class="st5" d="M365.5,138.3c-4.9-15.3-22-21.4-36.7-16.8,2.4-7.1,9.2-20,17.3-21,14.9-1.8,25.9,8.6,24.6,23.6-.1,1.6-3.4,15.5-5.2,14.2h0Z"/>
  <path class="st5" d="M457.7,172.9c.8-15-5.4-26.5-16.8-35.6,13.4-3.4,24-12.2,31.3,4.9,6.1,14.4,4.9,31.3-14.5,30.8h0Z"/>
  <path class="st5" d="M460.8,232.6c6.5-11.3,9.7-23,4.2-35.6,16,2.2,34.4,16,22.5,33.5-8.7,12.7-15.3,5.5-26.7,2.2Z"/>
  <path class="st18" d="M280.6,127.8c-13-4.3-29.5,2.8-32.5,16.8-15.4-9.5.9-35.8,14.4-37.5,7.3-.9,17.2,14.1,18,20.8h0Z"/>
  <path class="st11" d="M487,134.1c8.9,0,17.4,2.5,26.2,0,2,6,2.1,25.9-6,27.1l-23.4-1.9c-1.3-1.2,3.1-8.8,3.1-9.9v-15.2h0Z"/>
  <path class="st11" d="M317.3,139.3c-8.3-2-15.8-.4-23.5,3.1-1-.2-7.4-16.7-7.7-18.6-1.4-8.2,15.5-9.3,21.2-8.5,13.7,1.9,9.4,13.7,10,24h0Z"/>
  <path class="st11" d="M287.7,63.1c1.4,1.4,2.8,7.2,4.4,9.2-18.7-1.2-31.7,11.6-29.3,30.4-.9-.1-2.8.2-3.1,0-.4-.3-2.1-7.2-3-9.1-1.3-2.8-5.6-9.6-6-11.8-1.9-9.8,29-26.3,37-18.7h0Z"/>
  <path class="st11" d="M395.9,103.7c-.2-8.2-6.3-14-10.4-20.3.3-1.4,17.6-13.4,19.2-13,4.6.9,13.5,17.1,12.9,22.4-2.5,1.9-20.6,12-21.7,10.9h0Z"/>
  <path class="st18" d="M374.9,126.8c3.5-10.4-.8-18.7-8.4-25.7,2.7-2,12.7-14.2,15-14,4.7.4,12,15.4,11.2,20.2-.5,2.9-14.9,15.9-17.8,19.4h0Z"/>
  <path class="st18" d="M232.4,166.6c-6.1-1.8-18.2,6.8-22.5,6.3-.9,0-6-3.7-6.3-4.2-3.3-6,6.3-25.1,12.4-23.9,3.1.6,14.4,18.1,16.4,21.8Z"/>
  <path class="st18" d="M322.5,118.4c-1.4-10.1-2.4-20.2-7.3-29.3,8-2.8,15.8-2.6,24.1-1,.3.4-.7,8.6-1.1,9.9-1,3.3-5.2,6.1-7.5,9.3-2.5,3.5-4.1,7.5-6,11.2-1,1.7-1.8,2-2.1,0h0Z"/>
  <path class="st18" d="M250.2,93.2c-3.2-1.3-11.3,6.2-12.1,6.2-1.1,0-10.5-15.3-13.6-16.7-2.5-4.4,6.9-14.6,11-12,2.2,2.6,16.3,20.8,14.7,22.5h0Z"/>
  <path class="st18" d="M343.5,95.3c1.4-3.4.3-9.1,1.2-11.9,1.7-5.4,26.6-2.8,28.1,2.1.5,1.6-8.8,12.5-10,12.8-2.3.4-14.5-5.5-19.2-2.9h0Z"/>
  <path class="st7" d="M49,374.1c-.3,1.3-1,2.8-1,3.1-1.2-1.5-.4-2.2,1-3.1Z"/>
  <path class="st6" d="M437.8,188.6c7.1-6.3,17.4-8.5,26.2-11.5,3.3,20.6-13.8,9-26.2,11.5Z"/>
  <path class="st9" d="M242.2,98.8c3-3,8.7-5.6,11.4-1.1,5.6,9.2-4.8,8.9-9.1,15.4-2.5-4.6-6.6-9.9-2.2-14.3h0Z"/>
  <path class="st21" d="M475.5,251.5c1.4,1.5.8,2-1,1-12.9-7-27.5-8.5-41.9-9.4,0-.7,0-1.4,0-2.1,4.5,1.3,9.7-1,14.1-1.1,10.9-.3,20.1,5.9,28.8,11.6h0Z"/>
  <path class="st15" d="M482.7,134.2c2.6,2.2.4,14.9-.8,18.3-2,5.6-3.2-5.5-4-7.7-1.4-3.8-3.6-6.9-4.5-10.7,1.9.4,8.5-.6,9.3.1h0Z"/>
  <path class="st13" d="M491.2,264l-1,1c-2.4-3.1-12.2-10.7-15.7-12.6l1-1c6.3,4,10.7,9,15.7,12.6Z"/>
  <path class="st1" d="M362.3,304.9c-7.9,2.9-13.1,4.1-21,6.3v-1c5.2-.8,16.5-3.8,21-6.3v1Z"/>
  <path class="st17" d="M473.4,242c-.9,0-1.8,0-2.1,1-3.3-1.9-7.1-3.4-10.5-5.2-1.4-1.4-.8-1.6,1-1,4,1.1,8.4,2.3,11.5,5.2h0Z"/>
  <path class="st20" d="M257.5,268.2c.3-.5.7-.4,1,0-.4.3-.9,1.4-2.1,2.1l-2.1-1c.6-.1,1.8-1.6,3.1-1h0Z"/>
  <path class="st3" d="M461.9,236.8l-1,1c-1.4-.7-3.5-.7-3.1-2.1,1.9-.9,3.3.8,4.2,1Z"/>
  <path class="st16" d="M49,405.5c-.7,0-1.6-.9-2-1,0,0,0,0,0,0l1-2.1s0,0,0,0c.1.4.8,1.9,1,3.1Z"/>
  <path class="st14" d="M324.6,118.4c-.5.9-.9,3.2-1.6,3.2-1.1-.3-.4-2.2-.5-3.2h2.1Z"/>
  <path class="st19" d="M168.5,253.6c.8-.2,1.4-1.7,3.1-1,.1,1.3-1.7,1.5-2.1,2.1l-1-1Z"/>
  <path class="st17" d="M478.6,242c-1,.4-2.9,2.6-4.2,0,1.4,0,2.8,0,4.2,0Z"/>
  <path class="st12" d="M440.9,234.7c.6.2,2.2-.5,2.1.5.4,2.4-.6,1.2-2.1,1.6v-2.1Z"/>
  <path class="st8" d="M257.5,268.2c.5-1.7,3.6-1.6,3.1,0-.6.1-1.8-.2-2.1,0h-1,0Z"/>
  <path class="st10" d="M337.9,227.6c20.9-4.8,18.9,31.3,1.1,27.8-12.7-2.5-13.2-25.1-1.1-27.8Z"/>
  <path class="st4" d="M192.9,229.2c-6.6-6.5,1.7-26,11.7-19.5s-2.1,29-11.7,19.5Z"/>
</svg>