<?xml version="1.0" encoding="UTF-8"?>
<svg id="Layer_1" xmlns="http://www.w3.org/2000/svg" version="1.1" viewBox="0 0 989.2 1400.5">
  <!-- Generator: Adobe Illustrator 30.0.0, SVG Export Plug-In . SVG Version: 2.1.1 Build 123)  -->
  <defs>
    <style>
      .st0 {
        fill: #c12c42;
      }

      .st1 {
        fill: #010101;
      }

      .st2 {
        fill: #b7bebe;
      }

      .st3 {
        fill: #701a27;
      }

      .st4 {
        fill: #c42c42;
      }

      .st5 {
        fill: #c82d44;
      }

      .st6 {
        fill: #cc2e45;
      }

      .st7 {
        fill: #3a5cd5;
      }

      .st8 {
        fill: #721a28;
      }

      .st9 {
        fill: #8f9494;
      }

      .st10 {
        fill: #776569;
      }

      .st11 {
        fill: #cb2e45;
      }

      .st12 {
        fill: #a32437;
      }

      .st13 {
        fill: #244ad1;
      }

      .st14 {
        fill: #020202;
      }

      .st15 {
        fill: #fff;
      }

      .st16 {
        fill: #cc3046;
      }

      .st17 {
        fill: #162f85;
      }

      .st18 {
        fill: #fefefe;
      }

      .st19 {
        fill: #a52638;
      }

      .st20 {
        fill: #a32335;
      }

      .st21 {
        fill: #fcfcfc;
      }
    </style>
  </defs>
  <path d="M984.4,605.3c-6-34.2-24.4-81.9-43.3-111.1-4.3-6.6-29.3-35.3-29.7-37.6-.5-3.9,3.5-2.9,5.8-5.6,21.3-24.4,21.8-59,1.9-84.5-2.8-3.6-14.4-13-14.9-15.7-.5-2.5,6.2-21.8,5.3-32.4-.7-8.4-9.5-23.3-9.3-24.6.3-1.8,8.7-12.5,10.2-12.5,5.7-7,5.7-11.1,6.9-16,9.2-28.2,1.5-56.3-27.6-67.2-4.6-1.7-19.8-3.5-20.4-6.5,7.2-18.8,6.6-58.1-12.8-69.6-26.8-16-75.7-8.8-104.3-.3,5.1-73.3-50.2-60-95.3-34.9l-31.3,19.5c11.9-31.8,19.3-80.1-16.3-99.8-18.4-10.2-50.9-9.3-63.3,9.8-8.9,13.7-2.1,31.2-7.8,46-9.6-21.8-23.2-45.7-48.5-51.3-30.2-6.8-57.4,8.6-61.9,39.8-7.5-2.7-11.3-9.8-17.8-13.8-37.1-22.8-111.4,8.5-76.2,56-7.5,2.6-15.8,11.1-17.3,19.2-23.9-11.9-35.2-25.7-63.8-14.9-24.3,9.2-37.6,34-33.6,59.6,4.2,26.7,29.5,24.8,45.6,40.8-2.1,3.2-7-.9-8.6-1-13.4-.9-28.5,0-42.2,0s-17.2,5.1-18.9,6c-16.4,9-24.5,33.5-22.6,51.3-.9,2.2.4,9.5,3.5,17.8,3.7-.6,8.8,8.8,12.6,11.7,20.6,16.1,42.8-1.1,65.6-.5,5.4.1,35.1,5.5,33.6,12.4-.5,2-17.5,15.4-21.1,19.3-26.4,28.4-40.8,67.8-35.4,106.7-86.8,28.3-174.9,101.8-212.1,186-6.5,14.6-12.1,34.1-15.4,49.9-2.7,1.7-4.1,3.1-1.9,5.8-2.5,16.1-2.5,29.9,0,46.1L0,712.8s.1,0,.2,0c.7.3,2.4,2,3.7,1.9,4.6,21.2,11.7,40.7,32.6,50.9,21.6,10.6,36.2,6.3,57.6-1,11.3-4.7,16.7-9,23.7-13.2,1.4-3.2,2.8-5.9,4.1-7.9,2.1-3.2,2-1.2,3.8,0,3.1,2.1,6.3,6.9,9.7,9.5,32.7,25.9,77,33.8,117.9,32.7-13.1,76.2,18.4,163.3,77.8,213,12.6,10.5,27.2,17.3,40.9,26.1-3.6,11.9-4.8,25.7-3.5,38.2,1.4,13.9,10.4,23.9,12.5,37.3,9.3,59.3-52.1,107.9-51,152.6.5,20.2,19.9,32.8,19.4,48.1-.4,13.2-12.4,21.4-18.5,31.8-7.7,10-6.7,12.3-7.7,17.1h0c5.6,2.8,11.3,5.5,17.1,8.1,152.2,68.4,309.3,49.9,432.5-23.4.3-2.8-3.1-12.2-7-17.2-.2-17.7-9.9-34.7-13-51.3-5.7-30.5,6.2-69.7,9.1-101.2,8.7-96.2,11.2-193.4,19.2-289.8,5.1-60.6,15.6-124.6,19.2-184.3,1.9-32-6.8-66.1,15.4-93.1-.3,11.8.5,23.8,0,35.6-1.1,32.6-5.8,64.8-1.8,97.5,11.1,89.4,90.4,124.3,147.5,47.3,5.3-7.4,9.1-14.1,11.5-20.1,0-7.2,8.5-26.2,10.7-35.5,2.8-12.4,3.8-23.9,4.8-36.5,2-26.2.8-54.5-3.8-80.6h0Z"/>
  <path class="st6" d="M3.8,714.7c-1.3.2-3-1.6-3.7-1.9,0,0-.1,0-.2,0,.6-.6,1.2-.7,1.9-.4.6.3,1.3,1.1,2,2.3h0Z"/>
  <path class="st13" d="M721.5,401.9c2.8.1,2.9,3.3,0,3.8-5.3,1.1-15.3,1-15.3,7.7,3.7,1.1,3.7,2.8,0,3.8-.8,0-2.2-1.5-4.4-1.4-5.2.3-12.9,4-5,7.9,10.6,5.4,34.7,8.4,48.3,13.1,65.8,22.7,80,59,61.9,126.2-16.2,59.9-44.6,121.1-62.4,181.3-2.3,7.9-9.7,30-9.7,36.6,0,10.7,5.8,6.7,9.4-.3,16.4-32.2,24.5-79.4,40.4-113.2l4.1-1.7c-3.1,43-9.8,85.7-13.4,128.6-10.4,123.3-13.4,247.4-25,370.4-3.4,36-15.8,66.1-9,103.1,2.4,12.9,8.4,26.4,10.5,39.4,2.8,17.6,3.9,20.1-14.8,25.4-3.6-39.4-20.8-68.9-17-110.1,2.1-23,13.2-46.1,15.1-69.4,3.2-40.6-9.5-72.6-13.4-111.3-4.8-47.8,6-100.9-1.7-146.2-.6-3.6,1.6-7.5-4.1-6.3-5.9-15.4-6-34.5,0-49.9l3.8,5.8c-.9-6.3,1.6-12.1,2-18.2,5.8-93.2,1-161.8-64.3-233.4-3.4-3.7-10-5-10.7-10.6,1.1-5.5,6-39.7,7.9-41,5-3.4,19.9,7.4,24.7,8.6,3.4.9,3.5.9,5.8-2-10.7-19.9-40.6-24-60-15.9-3.2,1.3-7.9,2.6-7.1,7.3l21.1,1c-5.6,2.8-13.5,17.7-17.3,19.3-1.7.7-14.7-1.2-19.9-.8-46.1,4-129,55.2-178.6,72.7s-105,36.8-156.4,21.1c15.2-32.3,21.3-66.7-2-96.8-10.3-13.4-21.9-12-.9-27.9,15.2-11.5,39-14.7,57.1-21.6,23.7-9,56-25.7,76.1-40.9,3.6-2.7,10.2-11.2,12.7-12.3,3.5-1.5,6.8,11,6.5,12.3-1.2,4.8-20.2,8.1-14.2,30,3.1,11.6,13.7,14.1,19.4,20.9,3,3.7,3.2,8.1,5.7,11.6,21.1,29,78,24.7,108.9,16.8,2.1-.5,3.1-3.3,3.3-3.3,12.7-4.1,25.4-8,38.4-11.5,22.5-8.3,51.6-20.1,63.7-42.8,4.3-8,3.9-15.3,6.8-22,2.1-4.7,8.9-9.2,12.3-14.5,14.1-21.9,13.5-41.9-13.8-49.3-3.4-6.1,4.6-9.8,7.7-3.8,26-5.3,41.9-3.7,67.2,3.8h0Z"/>
  <path class="st13" d="M571.8,1019.8c11,40.2-6.7,84.7.8,124.9,3.8,20,14.8,36.7,16.5,58.4,3.5,44.3-21.9,124.8-10.6,158.3,2.1,6.3,7,11.1,8.6,17.3-56.9,5.2-113.2,1.6-168.8-11.6-3.1-19.1,7.3-35.3,12-52.1,8.5-30.5-15.3-46.5-11.9-80.9s29.5-64.4,32.4-90.4c2.6-23.7-8.1-26-15.7-43.8-9.4-22.2-4.8-40.8.4-63.2l2.3-2.1c20.2-2.9,42.7-9.5,57.2-24.3-28.4,3.2-51.7,19.4-80,6.1-38.5-18.1-57.5-60.5-41.1-101,59.6-3.9,104.7-41.8,143.2-83.6,1.8-2,15.9-22,18.2-19.2l4,54.7c-4,24-2.4,49.5,3.4,73.2,1.6,6.5,9.5,23.6,9.5,27,0,5.4-19.5,21.1-16.9,23.6,5.2,0,9.2-3.4,13.4-5.8,6.8-1,15.7,13.1,19.6,19.4,5.7,6.5,6.9,11.5,3.5,15.2h0Z"/>
  <path class="st15" d="M715.8,839.4c0,16.2,0,33.2,0,49.9.3,52.6-7.3,105.6-1.7,158.1,2.9,26.9,13.1,56.1,13.2,82.8.2,41.4-20.7,78.9-17.3,121,1.3,16.6,24.5,79.5,15.5,88.3-38.8,18-80,29.8-122.2,37.3-10.6,0-18-26.2-17.8-35.1,1-54,24.8-100.2,10.4-158.7-3.2-13.2-12.6-28.8-14.2-41.4-4.7-35.8,6.7-74.1-3-110.2-1.2-4.3-2.4-9.2-6.8-11.5-3-11.1-16.3-25.1-23-34.5,3.3-1.8,7.2-7.8,11.3-5.5.6.4,5.7,9.7,8,12.1,31.8,33.6,73.1,28.4,96.2-11.1,46.2-79,21.8-226.7-17.2-305.8-3.2-6.5-18.6-28.9-19.2-32.7-1.4-8.5,14.2-37.7,15-48.5,2.4-1.8,8.7,5.7,10.6,7.7,69.2,72,62.8,145.3,62.3,238h0Z"/>
  <path class="st6" d="M811.7,457.5c-2.5-2.7-1.5-3.7,1.9-1.9,14.7,10.3,29.4,0,39.3-11.5,13.6,15.5,31.4,28.9,52.8,20,56.7,68.6,86.5,173,64.6,260.5-11.6,46.4-48.8,101.7-103.8,76.1-60.1-27.9-35.9-138.7-39.5-190.8-.7-9.9-5.9-24.7-5.9-32.6,0-9.7,8.3-29.7,9.4-42.4,2.2-25.7-2.5-56.8-18.9-77.5h0Z"/>
  <path class="st6" d="M578.3,986.5c-39.1-37.6-28.5-100.1-31.4-148-3.2-51.4-18.7-104.5-49.7-145.6,7.1-4.8,40.4-34.7,45.2-35.6,7-1.2,30.6,38.9,34.3,45.9,14.1,26.9,26.2,60.5,32.6,90.2,3.9,17.8,5.1,36.4,9.6,53.7,5.7-11.6,2.2-29.9.7-42.9-6.5-55.1-28.5-113.4-66.8-154-.6-3.5,31.8-30.9,37-35.1,41.6,39.9,65.1,99.3,77.4,155s19.1,153.5-11.3,204.4c-18.2,30.3-51.3,37.5-77.6,12.2h0Z"/>
  <path class="st15" d="M616,565c-33.8,39.9-74.9,77.3-117.3,108.2-74.4,54.2-181,104.1-275.1,97.1-7.3-.5-35.2-4.8-39.4-8.5-11-9.7-16.5-48.6-6.7-58.7,2.1-2.2,25.1-3,31.8-4.7,21.5-5.2,40.3-21.3,51.9-39.3,33.4,15,64.2,9.8,98.1,1.3,42.7-10.7,86.9-27.5,126.9-45.8,41.7-19,82.7-47,129.8-49.6h0Z"/>
  <path class="st15" d="M438,489.7c-3.7-3.5-13.4-31.5-14.9-37.9-32-133.7,125.3-191.7,187.4-76.1,6.1,11.4,16.8,40.1,16.9,52.4,0,4.3-1.1,4.7-3.7,7.5-26.7,28.4-98.7,56-137.3,58.4-7.1.4-45-1-48.4-4.3Z"/>
  <path class="st6" d="M222.6,436.4c2.6-1.4,3.5-.8,1.9,1.9-11.4,14.9,4.1,26.5,17.3,31.7-82.6,41.9-176.5,140.1-138.5,240.2,7.2,19.1,17.5,18.8-3.5,36.1-37.6,31.2-77.1,9.3-85.5-35.4-20.9-111.2,109.3-243.6,208.3-274.5Z"/>
  <path class="st6" d="M646.7,401.9c-2-.5-4.8.2-7.7-.8-7.1-2.5-14.5-27.5-19.5-36.2-30.5-52.7-98.7-82.7-155.7-52.8-9.5,5-16.4,13.2-25.2,18.9-7.5-13.7-15.2-24.2-27-34.5-3.9-3.4-13.3-7.4-15.7-10.2-10.6-12.3,19.4-24.9,29.9-25.2,6.8-.2,21.4,6.2,21.4,13.3v36.5c0,.5,2.1,3.1,3.9,2,6.2-4.2,6.1-30.8,5.7-38.4-.4-8.2-7.2-30.6-.8-35.4,5.2-3.8,32.8-9.3,36.4-4.1,2,2.8-1.4,21.6-1,27.9.3,4.8,3,22,6.7,24s2.7-2.9,2.9-4.8c.6-8.2-2.8-17.4,3.9-23,14.5-12.2,47.4-3.4,53.8,15.2,2.7,8,.9,9.5-.6,16.9-.5,2.6-3.5,3.8,1.5,3.4,11.4-17.7,18.8-38.2,30.9-55.5,1.7-2.4,5.2-9.9,8.6-9,10.5,2.9,32,30.2,32.5,40.7.5,9.8-26.2,28.1-25,41.1,3.9.5,6.2-3.3,8.7-5.7,8.4-8.3,36.4-43.5,46.2-44.2,13.7-.9,34.2,34,36.5,46,3.3,16.9-20.5,16.2-33.8,24-2.4,1.4-13.5,6.3-9.6,10.6,1.8,1.9,36.2-17.4,44.1-12.5,11.3,7,11.3,44.2,4,55.4-4.5,6.9-41.1-1.4-48.1,12.8-3,.6-5.9.8-7.7,3.8h0Z"/>
  <path class="st15" d="M345,285.4c32.7-1.8,63.8,13.5,78.2,43.5,9.6,20-1,22.9-7.7,40.4-3,7.8-5.6,24.4-8.9,29.5-13.8,21.3-85.1,43.6-110.1,45.4-39.7,2.8-58.6,1.4-56.8-43.3,2.3-54.3,49.2-112.4,105.2-115.5h0Z"/>
  <path class="st15" d="M429.8,1035.2c-7.5,23.2-11.9,45.1-2.2,68.5,10.8,26.3,22.2,21,8.9,54.3-12.7,31.9-33.5,63.3-27.3,100.4,2.1,12.5,15.1,29.7,14.7,42.5-.3,9.8-9.5,26.8-12.3,37.6-1.3,4.8-2.9,24.7-5.7,24.9l-62.4-23c5.8-12.9,19.3-24,19.3-39.3s-21.4-30-19.4-53.7c1.8-20.7,30.5-59.5,39.3-81.6,6.6-16.5,13.9-42.8,12.5-60.4-1.4-17-13.2-31.1-15.1-46.3-1.3-10.2-.2-21.5,1.7-31.5,15.3,5.3,31.7,7.9,47.9,7.7h0Z"/>
  <path class="st6" d="M204.9,544.4c77.1-10,85.4,101.7,15.6,136.5-105.6,52.7-121.3-122.7-15.6-136.5Z"/>
  <path class="st15" d="M1.9,712.4c-.3.6-.9.7-1.7.5,0,0-.1,0-.2,0l1.9-3.8s0,0,0,.1c.3,1.6.3,2.7,0,3.3Z"/>
  <path class="st15" d="M403,1019.8c-59-10.3-103.2-59.6-122.9-114.1-12.8-35.5-17.7-77.8-13.5-115.3.3-2.8.2-4.9,3-6.6,8.5-2.7,8.1,20.4,9.5,26.9,8.8,40.5,25.3,80.4,66.3,96.8,4.4,1.8,22.5,5.7,22.7,7.7-15.9,42.3,3.9,77,34.8,104.6h0Z"/>
  <path class="st13" d="M539.2,540c-25.7,3.9-75.5,6.4-96.9-9.6-2.4-1.8-5.4-5-6.7-7.7,4.1,1.6,30.8,1.2,30.7-2.9-.1-3.6-27.2-6.5-32.2-8.1-15.5-4.9-34.5-22-13.1-33.1,8.3,5.7,6,9.2,3.1,17.1,55.8,17.8,114.6,5.9,164.4-22.7,8.9-5.1,56.5-37.5,56.4-45.5,0-4.8-11-5.7-7.8-14.4,40.6,3.6,10.9,38.2-5.7,52.8-4.2,3.7-24.6,15.8-25,17.2-.3,1.1-.6,4.6,1,4.8,7.8.9,19.7-8.1,26.9-11.5,5.4-1.7-9.5,18.7-11.2,20.4-7.1,7.1-36.4,26.5-45.4,31.4-11,6.5-25.7,10.3-38.4,11.5h0Z"/>
  <path class="st15" d="M380,465.2c3.4-1.1,4.7-.5,3.8,1.9-22,13.9-49.4,27.3-73.8,36.5-21.4,8-38,7.9-56.7,23.9-3.1,2.7-6.7,9.7-8.9,10.4-3.4,1.1-23.4-6-32.2-5.6-35.4,1.6-60.9,26.1-78.1,54.4-1.5,2.5-3.1,8.7-3.5,9-1.4,1-5.4-1.4-5.7-3-.8-3.8,24.3-38.7,28.8-44,14.6-17.2,36.4-35.9,55-48.6,6.8-4.6,36.5-23.6,42.3-24.9,7.7-1.7,35.2,1.8,46.6,1.5l5.7-4.1c17.9-1.4,35.6-4.1,53.1-8.2l6.4,2.7c5-1,12-.8,17.3-1.9h0Z"/>
  <path class="st6" d="M786.8,209.9c11.7-28.3,2.4-56.4-15.3-79.6,1.3-2.2,2.7-2.3,4.9-2.8,10.5-2.5,29.4-4.3,40.3-4,6.5.2,28.3,2.6,33.4,5,15,7.3,17.3,34.9,15,49.3-1.1,7-12.1,32.1-19.7,32.1h-58.5,0Z"/>
  <path class="st6" d="M832.8,277.1c18.1,2.2,60.6,15.4,66.3,34.5,5.9,20.1-9.6,62.6-34.1,59.2-5.8-.8-46.6-16.5-47.4-20,12.4-23.5,20.4-46.8,15.2-73.7h0Z"/>
  <path class="st6" d="M855.9,376.9c18.6,6.8,29.2-6,43.2-15.4,32.6,18.8,35.4,68.6,3.5,89.9-14,9.4-20.8,5.1-33.1-4.6-18.1-14.4-8.2-13-6.1-30.8.6-5.3.8-13.7.2-19-.9-8.5-5-12.8-7.7-20.1h0Z"/>
  <path class="st6" d="M493.2,181.1c-22-9.4-41.2-7.2-61.5,4.9-5.3-5.5-9.9-14.3-15.2-19.4-3.2-3.1-10.2-4.5-11.3-7.9-6.2-18.7,10.2-40.2,28.4-43.9,41-8.6,53.7,34.9,59.6,66.3h0Z"/>
  <path class="st6" d="M435.6,79.4c-28.5-2.1-52.3,11.7-68.1,34.5-5.9-12.1-31.5-27.5-33.5-39.4-4.6-28.4,30.4-37.8,52.4-35.2s38.4,22.7,49.1,40.1h0Z"/>
  <path class="st6" d="M679.3,234.9c-3.8-25.1-22.7-41.7-44.1-52.8,14.9-11.8,46.7-40.7,66.2-27.8,15.7,10.4,26.6,41.3,17.8,58.1-4.3,8.3-31.3,16.3-39.9,22.5Z"/>
  <path class="st13" d="M174.6,758.8c-41.4-14-72.2-60.5-69-104.5.5-6.5,11.1-54.8,16.3-54.7,7.8.1,1.2,16,1,20.1-2.3,40.6,11.8,65.1,49.6,80.5-9.4,19.4-6,39.5,2.2,58.6Z"/>
  <path class="st6" d="M685.5,142.4c-1.4-1-7.1-25.2-12.2-32.9-2.1-3.2-13.1-12.1-11.2-14.7,17.5-7.2,51-26,69-14.3,22.6,14.6,11.3,70.9-18.2,70.1-5.3-.1-6.9-4-10.5-4.9-3.7-1-15.4-2.1-16.9-3.2Z"/>
  <path class="st15" d="M351.2,179.2c-13.3-.6-28.9,5-38.4,14.4-3.3,3.2-9.7,16.2-10.6,16.4-1.7.3-3.2-.2-4.7-1-2.3-1.3-24.8-19.2-26.7-21.3-10-10.8,5-32.9,14.2-41.1,8.3-7.4,26.5-17.4,37.4-12.4,6.5,3,31.8,42.5,28.8,45.1h0Z"/>
  <path class="st6" d="M527.7,71.8c-16.3-7-36.9-4.8-53.1,1.6-9.1,3.6-16.5,10.2-25.5,13.8-10.9-23.3-18.1-50.2,10.7-63.1,36.2-16.2,62.5,14.8,67.9,47.8h0Z"/>
  <path class="st6" d="M548.8,67.9c2.1-23.8-2.1-59.5,31.7-59.5,34.5,0,52.1,45.4,38.4,72.9-19.5-17.1-45.6-20.4-70-13.4h0Z"/>
  <path class="st15" d="M704.3,309.7c-4.1-22.6-17.1-42.5-36.4-54.7,0-2.5,35.3-23.8,40.2-25,24.4-6.4,42.3,37.9,38.4,57.7-1.2,6-9.7,6-14.8,8.3-9.3,4.3-18,9.8-27.5,13.8Z"/>
  <path class="st15" d="M562.3,269.4c-10.6-22.2-40.9-29.4-61.4-15.4.9-12.6,3.9-44.5,14.3-51.9,22.3-15.8,68.2,7.3,64.2,35.4-.5,3.7-15.2,33.2-17.2,31.8h0Z"/>
  <path class="st6" d="M316.6,129.3c-29.5,1.5-51.9,22.7-55.7,51.8-27.9-8.9-40.9-30-26-57.7,19.2-35.7,62-20.3,81.7,5.8h0Z"/>
  <path class="st15" d="M727.3,211.9c4.4-19.6,1.6-36.2-7.7-53.7,25.3-2.6,32-48.2,53.3-12.1,9.5,16.1,15.5,45.8,5.8,62.6-4.2,7.2-6.6-.7-12.5-2.1-12.6-3-26.5,3.5-38.9,5.4h0Z"/>
  <path class="st13" d="M297.4,476.7c3-3.5.9-5.2-2.9-5.8-18.3-2.8-37.5-2.1-54.1-13.1-4.4-2.9-14.2-12-5.4-15.7,3-1.2,9.1,5.9,13.4,7.7,38.7,15.9,94.8-.5,130.1-19.6,7.2-3.9,20-14.7,25.4-16.9,3.4-1.3,2.6.9,2.8,2.8.4,3.1,1.8,16.5,1,18.2-1.4,3.2-15.4,13-19.2,15.5-8.3,5.3-22.3,8.3-26,17.2-23.1,4.4-41.1,9-65.2,9.6h0Z"/>
  <path class="st15" d="M280.2,277.1c-10.2-4.7-35.5-.9-41.2-7.7-9.1-11-8.8-30.9-3.3-43.5,14.9-34.2,52.2-15.4,69.4,6.1-15.5,9.9-26.5,26.2-24.9,45.1Z"/>
  <path class="st6" d="M790.6,415.3c23.8-8.4,33-29.1,30.7-53.7,16.4,6.8,35.2,22.3,35.7,41.6.5,17.1-13.4,51.2-34.4,46.3-15.7-10.2-29.3-22.7-45.5-32.2-4-4.9-1.2-4.6,3.8-1.9.6,0,1.3,0,1.9,0,2.3,1.3,4.9,1.3,7.7,0h0Z"/>
  <path class="st15" d="M535.4,127.4c-8.9-10.5-45.9,2.1-48.1,1-2.1-1-5.3-7.9-8.5-10.6-9.4-7.9-34.3-12.7-20.2-27.9,5.5-6,25.7-15,33.8-16.1,7.7-1,31.4,0,37.2,4.7,2.2,1.8,5.8,18.4,5.8,21.1v27.8h0Z"/>
  <path class="st6" d="M385.7,280.9c-7.8-3.5-34.8-3.6-39.4-7.6-1.6-1.4-14.4-25.8-18.5-31.4-3.7-5-21.2-23.2-21.8-26.1-2.4-10.9,22.4-29.1,32.8-30.8,27.1-4.2,10.4,10.1,8.7,24-3.3,26.8,30.3,47,38.2,71.8h0Z"/>
  <path class="st15" d="M600.6,225.3c-1.6-2.1,23.1-33.8,26.9-35.5,13.6-6.1,47.5,31.1,46,46.1-.7,7-30.3,24.1-35.5,31.7-8.4-16.7-17.7-37-37.4-42.2h0Z"/>
  <path class="st6" d="M243.7,204.2c-2.1,7.4-9.5,11.3-13.1,18.6-8.2,16.7-4.8,36.4,3.5,52.4-26.4,12.1-49.7,2.9-51.8-27.9-2.6-39.4,30.3-43.2,61.4-43.1h0Z"/>
  <path class="st6" d="M897.4,216.4c14.3,14.4,13.6,37.6,5.5,55-2,4.2-6.3,13.2-11.5,13.4-3.8,0-30-15.9-37.4-16.3,8.8-12.3,10.4-25.5,9.5-40.3-.4-6-6-17.8-1-22.1,7.9-6.9,28.5,3.9,34.9,10.3h0Z"/>
  <path class="st15" d="M749.3,327c21,4.5,12.8,63.9-2.1,66.7-7.6,1.5-27.7-7.4-37.2-5.3,8-21.1,8.8-41-1.9-61.4,11.9,1.7,30.2-2.4,41.3,0h0Z"/>
  <path class="st15" d="M443.3,257.9c-19.7-9.3-36.8-.6-52.5,11.4-1.6-.3-14.9-20.4-15.6-22.9-9.4-30.8,49.8-50.7,60.6-26.1,2.1,4.8,9.6,34.7,7.5,37.5h0Z"/>
  <path class="st15" d="M604.4,123.5c-7.1-.4-12.1-5.8-19.5-8.2-12.9-4.1-26.7-4.3-39.9-1.3-1.3-1.4,1.4-34.3,3.7-37.6,11.1-15.7,68.9-.9,69.2,15.4.1,7.1-12.2,23.5-13.5,31.6h0Z"/>
  <path class="st15" d="M825.1,275.3c3.8,16.8.3,36.3-6.1,52.2-9.7,23.9-9.8,12.6-26.4,4.3-7.9-4-15.9-7.3-24.2-10.5,3.2-4.6,4.1-25,5.2-26.7.7-1.1,7.3-1.3,10.3-4.1,3.2-3.1,5.4-14.3,8.7-16.3,7-4.3,24.1,2.5,32.6,1.1h0Z"/>
  <path class="st6" d="M583.4,225.3c-9-28.1-40.3-39.2-67.2-30.7,4.5-12.9,16.9-36.6,31.6-38.4,27.2-3.3,47.5,15.8,45.1,43.2-.2,2.9-6.2,28.4-9.5,25.9h0Z"/>
  <path class="st6" d="M752.2,288.6c1.4-27.4-9.9-48.5-30.7-65.2,24.6-6.2,43.9-22.4,57.3,8.9,11.2,26.3,9,57.4-26.6,56.3h0Z"/>
  <path class="st6" d="M758,398c11.9-20.7,17.8-42.1,7.7-65.2,29.3,4.1,63,29.3,41.1,61.3-15.9,23.2-28,10-48.8,3.9Z"/>
  <path class="st11" d="M427.9,206.1c-23.8-7.9-54,5.1-59.5,30.7-28.2-17.5,1.6-65.5,26.5-68.7,13.4-1.7,31.5,25.8,33,38h0Z"/>
  <path class="st18" d="M806,217.6c16.2,0,31.8,4.5,48,0,3.7,11.1,3.9,47.4-11,49.5l-42.8-3.5c-2.3-2.1,5.8-16.1,5.8-18.2v-27.8h0Z"/>
  <path class="st18" d="M495.1,227.2c-15.2-3.7-29-.8-43,5.7-1.8-.4-13.6-30.6-14.2-34-2.5-15,28.4-17.1,38.9-15.6,25.1,3.4,17.3,25,18.4,44h0Z"/>
  <path class="st18" d="M440.9,87.6c2.6,2.5,5.1,13.1,8.1,16.8-34.3-2.2-58.1,21.2-53.7,55.7-1.6-.3-5.1.4-5.7,0-.7-.6-3.9-13.1-5.5-16.6-2.4-5.2-10.2-17.6-10.9-21.6-3.4-17.9,53.2-48.2,67.7-34.2h0Z"/>
  <path class="st18" d="M639,162c-.3-15-11.5-25.6-19.1-37.2.5-2.6,32.2-24.5,35.1-23.9,8.4,1.6,24.8,31.3,23.7,41.1-4.6,3.4-37.8,21.9-39.7,20h0Z"/>
  <path class="st11" d="M600.7,204.2c6.3-19.1-1.5-34.2-15.3-47,5-3.6,23.3-26,27.5-25.6,8.6.7,22,28.3,20.5,37-.9,5.4-27.4,29.1-32.6,35.6h0Z"/>
  <path class="st11" d="M339.7,277.1c-11.2-3.4-33.4,12.4-41.2,11.6-1.6-.2-11-6.7-11.6-7.8-6.1-10.9,11.5-46,22.7-43.8,5.6,1.1,26.4,33.2,30,40Z"/>
  <path class="st11" d="M504.7,188.8c-2.6-18.4-4.3-37-13.4-53.7,14.6-5.1,29-4.8,44.1-1.9.6.6-1.3,15.8-2,18.1-1.8,6-9.5,11.1-13.7,17-4.5,6.4-7.5,13.7-11.1,20.6-1.9,3-3.2,3.7-3.8,0h0Z"/>
  <path class="st11" d="M372.3,142.8c-5.9-2.4-20.6,11.4-22.1,11.4-2,0-19.2-28.1-25-30.6-4.5-8,12.6-26.8,20.2-22.1,4,4.7,29.9,38.1,26.9,41.3h0Z"/>
  <path class="st11" d="M543.1,146.6c2.6-6.3.5-16.6,2.2-21.8,3.2-9.8,48.7-5.2,51.4,3.8.9,3-16.2,22.9-18.4,23.4-4.1.8-26.6-10-35.2-5.4h0Z"/>
  <path class="st16" d="M3.8,657.1c-.5,2.4-1.8,5.1-1.9,5.8-2.2-2.7-.8-4.1,1.9-5.8Z"/>
  <path class="st5" d="M715.8,317.4c13-11.6,31.9-15.5,48-21.1,6,37.7-25.3,16.5-48,21.1Z"/>
  <path class="st21" d="M357.6,153c5.5-5.6,15.9-10.2,20.9-2.1,10.3,16.9-8.8,16.3-16.7,28.2-4.5-8.4-12-18.1-4.1-26.2h0Z"/>
  <path class="st0" d="M784.8,432.6c2.5,2.7,1.5,3.7-1.9,1.9-23.6-12.8-50.4-15.5-76.8-17.3,0-1.3,0-2.6,0-3.8,8.3,2.4,17.8-1.8,25.8-2,20-.5,36.7,10.8,52.8,21.2h0Z"/>
  <path class="st4" d="M798.1,217.8c4.7,4,.8,27.3-1.5,33.6-3.7,10.2-5.8-10-7.3-14.2-2.5-6.9-6.6-12.7-8.2-19.6,3.5.7,15.5-1.1,17.1.2h0Z"/>
  <path class="st12" d="M813.6,455.6l-1.9,1.9c-4.5-5.6-22.3-19.5-28.8-23l1.9-1.9c11.5,7.4,19.6,16.5,28.8,23Z"/>
  <path class="st7" d="M577.6,530.4c-14.5,5.3-23.9,7.6-38.4,11.5v-1.9c9.6-1.5,30.2-7,38.4-11.5v1.9Z"/>
  <path class="st19" d="M781,415.3c-1.6.2-3.2,0-3.8,1.9-6.1-3.6-12.9-6.3-19.2-9.6-2.5-2.5-1.5-3,1.9-1.9,7.4,2,15.3,4.2,21.1,9.6h0Z"/>
  <path class="st2" d="M385.7,463.3c.6-.8,1.2-.8,1.9,0-.8.6-1.7,2.5-3.8,3.8l-3.8-1.9c1.1-.2,3.3-2.9,5.8-1.9h0Z"/>
  <path class="st3" d="M759.9,405.7l-1.9,1.9c-2.6-1.4-6.4-1.3-5.8-3.8,3.4-1.6,6,1.4,7.7,1.9Z"/>
  <path class="st10" d="M3.8,714.7c-1.3.2-3-1.6-3.7-1.9,0,0-.1,0-.2,0l1.9-3.8s0,0,0,.1c.2.8,1.4,3.4,1.9,5.6Z"/>
  <path class="st20" d="M508.5,188.8c-.9,1.6-1.6,5.8-2.9,5.8-2-.6-.7-4-1-5.8h3.8Z"/>
  <path class="st8" d="M222.6,436.4c1.4-.4,2.6-3.1,5.8-1.9.2,2.3-3.1,2.8-3.8,3.8l-1.9-1.9Z"/>
  <path class="st19" d="M790.6,415.3c-1.9.7-5.4,4.8-7.7,0,2.5-.1,5.1.1,7.7,0Z"/>
  <path class="st17" d="M721.5,401.9c1.2.4,3.9-1,3.8,1,.7,4.4-1.2,2.3-3.8,2.9v-3.8Z"/>
  <path class="st9" d="M385.7,463.3c.9-3,6.7-3,5.7,0-1.1.3-3.3-.4-3.8,0h-1.9,0Z"/>
  <path class="st1" d="M532.9,388.8c38.3-8.8,34.6,57.4,2,51-23.3-4.5-24.2-45.9-2-51Z"/>
  <path class="st14" d="M267.3,391.7c-12-12,3.2-47.5,21.4-35.7s-3.8,53.1-21.4,35.7Z"/>
</svg>