<?xml version="1.0" encoding="UTF-8"?>
<svg xmlns="http://www.w3.org/2000/svg" version="1.1" viewBox="0 0 402 230">
  <!-- Generator: Adobe Illustrator 30.0.0, SVG Export Plug-In . SVG Version: 2.1.1 Build 123)  -->
  <defs>
    <style>
      .st0 {
        fill: #3e57a7;
      }

      .st1 {
        fill: #4861ad;
      }

      .st2 {
        fill: #010101;
      }

      .st3 {
        fill: #711a28;
      }

      .st4 {
        fill: #030303;
      }

      .st5 {
        fill: #cd3148;
      }

      .st6 {
        fill: #cc3047;
      }

      .st7 {
        fill: #cc2e46;
      }

      .st8 {
        fill: #c82e45;
      }

      .st9 {
        fill: #cc3247;
      }

      .st10 {
        fill: #8f9494;
      }

      .st11 {
        fill: #fdfeff;
      }

      .st12 {
        fill: #020202;
      }

      .st13 {
        fill: #fff;
      }

      .st14 {
        fill: #293881;
      }

      .st15 {
        fill: #a42439;
      }

      .st16 {
        fill: #a42437;
      }

      .st17 {
        fill: #c42e43;
      }

      .st18 {
        fill: #78666a;
      }

      .st19 {
        fill: #a62639;
      }

      .st20 {
        fill: #cb3046;
      }

      .st21 {
        fill: #cd3248;
      }

      .st22 {
        fill: #731a29;
      }

      .st23 {
        fill: #b8bebe;
      }

      .st24 {
        fill: #c22c43;
      }
    </style>
  </defs>
  <g id="Layer_2">
    <rect width="402" height="230"/>
  </g>
  <g id="Layer_1">
    <g>
      <path class="st2" d="M165.9,32.7c.2,0,.8.5,1.1.1-2-2-5.2-1.8-5.8-5.2-.5-3.2,1.2-6.3,4.2-7.5,3.6-1.4,5,.4,8.1,1.9.2-1,1.2-2.1,2.2-2.4-4.4-6,4.9-9.9,9.6-7.1.8.5,1.3,1.4,2.2,1.7.6-3.9,4-5.9,7.8-5,3.8.9,4.9,3.7,6.1,6.5.7-1.9-.1-4.1,1-5.8s5.7-2.5,8-1.2c4.5,2.5,3.6,8.6,2.1,12.6l4-2.5c5.7-3.2,12.7-4.9,12,4.4,3.6-1.1,9.8-2,13.2,0,2.4,1.5,2.5,6.4,1.6,8.8,0,.4,2,.6,2.6.8,3.7,1.4,4.6,4.9,3.5,8.5,25.3,14.4,43.2,40.5,47.4,69.5,9.2,63.1-43.5,117.6-106.9,110.5-37-4.2-68.7-29.9-80.6-65-15.2-44.8,4.4-94.5,46-116.4-.2-2.2.8-5.3,2.9-6.5s2.3-.8,2.4-.8c1.7,0,3.6-.1,5.3,0h0Z"/>
      <path class="st7" d="M136,84.5l-.6-.2c-1.6-1.8-7.4-6.9-9.7-6.2s-2.1,4.4,0,5.3c1.1,1.5-1.1,5.6-3,5.7-3.5-1.3-6.2,2.4-2.8,4.6,2.4,1.6,6.9,2.5,9.7,3.1,1.5,0,2.8.4,3.9,1,.2-.2.3,0,.5.2.6,2.7,1.5,5.1,4.1,6.4,2.7,1.3,4.6.8,7.3-.1-11,29.1,2.9,62.2,31.1,74.9,44.9,20.2,93-19.5,82.4-67.3-.4-1.8-2.5-7.4-2.5-8.4s1.1-3.3,1.4-4.5.5-3,.6-4.6h.6c2.6,4.7,4.4,4.5,8.9,2.4,3.1-1.5,11.7-5.7,13.1-8.8,1.1-2.3-3.2-7.7-4.9-9.2-4.2-3.7-11.9-.9-11.3,5.1l-.2.4c-2.2-.9-4-1.3-6.1.2l-.6-.2c-.8-4.3-3.1-10.3-5.5-14-.5-.8-3.7-4.5-3.7-4.7,0-.5.4-.4.7-.7,2.7-3.1,2.8-7.4.2-10.7-.4-.5-1.8-1.6-1.9-2s.8-2.8.7-4.1-1.2-2.9-1.2-3.1,1.1-1.6,1.3-1.6c.4,0,5.9,3.8,6.7,4.4,60.2,42.2,51.1,134.6-16.1,164-66.3,29-139.1-24.1-132.2-95.9,3-30.9,21.7-59,48.9-73.7.5,0,1.1,1.1,1.6,1.5,2.6,2,5.4-.1,8.3,0,.7,0,4.4.7,4.2,1.6s-2.2,1.9-2.7,2.4c-3.3,3.6-5.2,8.6-4.5,13.5-11,3.6-22.1,12.9-26.8,23.5h0Z"/>
      <path class="st13" d="M165.5,107c-1.7,9.6,2.3,20.6,9.8,26.9,1.6,1.3,3.4,2.2,5.2,3.3-.5,1.5-.6,3.2-.4,4.8s1.3,3,1.6,4.7c1.2,7.5-6.6,13.6-6.4,19.3s2.5,4.1,2.4,6.1c0,1.7-1.6,2.7-2.3,4-14.3-7.1-25.2-20.4-29.3-35.8-2.8-10.3-2.7-21,.3-31.3.5-1.7,1.8-5.9,2.7-7.3s.3-.2.5,0c.4.3.8.9,1.2,1.2,4.1,3.3,9.7,4.3,14.9,4.1h0Z"/>
      <path class="st0" d="M224.6,58.6c.4,0,.4.4,0,.5-.7.2-1.9.1-1.9,1,.5.1.5.4,0,.5-.1,0-.3-.2-.6-.2-.7,0-1.6.5-.6,1s4.4,1.1,6.1,1.7c8.3,2.9,10.1,7.4,7.8,15.9-2,7.6-5.6,15.3-7.9,22.9-.3,1-1.2,3.8-1.2,4.6,0,1.4.7.8,1.2,0,2.1-4.1,3.1-10,5.1-14.3l.5-.2c-.4,5.4-1.2,10.8-1.7,16.2-1.3,15.6-1.7,31.2-3.2,46.8-.4,4.5-2,8.3-1.1,13,.3,1.6,1.1,3.3,1.3,5s.5,2.5-1.9,3.2c-.5-5-2.6-8.7-2.1-13.9.3-2.9,1.7-5.8,1.9-8.8.4-5.1-1.2-9.2-1.7-14-.6-6,.8-12.7-.2-18.5,0-.5.2-.9-.5-.8-.7-1.9-.8-4.4,0-6.3l.5.7c-.1-.8.2-1.5.3-2.3.7-11.8.1-20.4-8.1-29.4-.4-.5-1.3-.6-1.4-1.3.1-.7.8-5,1-5.2.6-.4,2.5.9,3.1,1.1s.4.1.7-.3c-1.4-2.5-5.1-3-7.6-2-2.4,1-1,.3-.9.9h2.7c-.7.5-1.7,2.4-2.2,2.6s-1.9-.2-2.5-.1c-5.8.5-16.3,7-22.6,9.2-6.3,2.2-13.3,4.6-19.7,2.7,1.9-4.1,2.7-8.4-.3-12.2-1.3-1.7-2.8-1.5-.1-3.5,1.9-1.5,4.9-1.9,7.2-2.7,3-1.1,7.1-3.2,9.6-5.2s1.3-1.4,1.6-1.6.8,1.4.8,1.6c-.2.6-2.5,1-1.8,3.8.4,1.5,1.7,1.8,2.4,2.6.4.5.4,1,.7,1.5,2.7,3.7,9.8,3.1,13.7,2.1.3,0,.4-.4.4-.4,1.6-.5,3.2-1,4.8-1.5,2.8-1,6.5-2.5,8-5.4.5-1,.5-1.9.9-2.8.3-.6,1.1-1.2,1.6-1.8,1.8-2.8,1.7-5.3-1.7-6.2-.4-.8.6-1.2,1-.5,3.3-.7,5.3-.5,8.5.5h0Z"/>
      <path class="st13" d="M254.9,106.1c9,25.4-1.5,54.7-24.7,68.1,0-2.2-1.2-4.4-1.6-6.5-.7-3.9.8-8.8,1.1-12.8,1.1-12.1,1.4-24.4,2.4-36.6.6-7.6,2-15.7,2.4-23.3s-.9-8.3,1.9-11.8c0,1.5,0,3,0,4.5-.1,4.1-.7,8.2-.2,12.3,1.4,11.3,11.4,15.7,18.6,6h0Z"/>
      <path class="st0" d="M205.7,136.6c1.4,5.1-.8,10.7.1,15.8.5,2.5,1.9,4.6,2.1,7.4.4,5.6-2.8,15.8-1.3,20,.3.8.9,1.4,1.1,2.2-7.2.7-14.3.2-21.3-1.5-.4-2.4.9-4.5,1.5-6.6,1.1-3.9-1.9-5.9-1.5-10.2.4-4.4,3.7-8.1,4.1-11.4.3-3-1-3.3-2-5.5-1.2-2.8-.6-5.2,0-8l.3-.3c2.5-.4,5.4-1.2,7.2-3.1-3.6.4-6.5,2.4-10.1.8-4.9-2.3-7.3-7.6-5.2-12.7,7.5-.5,13.2-5.3,18.1-10.6.2-.3,2-2.8,2.3-2.4l.5,6.9c-.5,3-.3,6.2.4,9.2.2.8,1.2,3,1.2,3.4,0,.7-2.5,2.7-2.1,3,.7,0,1.2-.4,1.7-.7.9-.1,2,1.7,2.5,2.4.7.8.9,1.5.4,1.9h0Z"/>
      <path class="st13" d="M223.9,113.8v6.3c0,6.6-.9,13.3-.2,20,.4,3.4,1.7,7.1,1.7,10.5,0,5.2-2.6,10-2.2,15.3.2,2.1,3.1,10,2,11.1-4.9,2.3-10.1,3.8-15.4,4.7-1.3,0-2.3-3.3-2.2-4.4.1-6.8,3.1-12.6,1.3-20-.4-1.7-1.6-3.6-1.8-5.2-.6-4.5.8-9.4-.4-13.9-.2-.6-.3-1.2-.8-1.5-.4-1.4-2.1-3.2-2.9-4.4.4-.2.9-1,1.4-.7,0,0,.7,1.2,1,1.5,4,4.2,9.2,3.6,12.1-1.4,5.8-10,2.8-28.6-2.2-38.6-.4-.8-2.3-3.6-2.4-4.1-.2-1.1,1.8-4.8,1.9-6.1.3-.2,1.1.7,1.3,1,8.7,9.1,7.9,18.3,7.9,30h0Z"/>
      <path class="st7" d="M236,65.6c-.3-.3-.2-.5.2-.2,1.9,1.3,3.7,0,5-1.5,1.7,2,4,3.6,6.7,2.5,7.2,8.7,10.9,21.8,8.2,32.9-1.5,5.9-6.2,12.8-13.1,9.6-7.6-3.5-4.5-17.5-5-24.1,0-1.2-.7-3.1-.7-4.1s1-3.7,1.2-5.4c.3-3.2-.3-7.2-2.4-9.8h0Z"/>
      <path class="st7" d="M206.5,132.4c-4.9-4.7-3.6-12.6-4-18.7-.4-6.5-2.4-13.2-6.3-18.4.9-.6,5.1-4.4,5.7-4.5.9-.2,3.9,4.9,4.3,5.8,1.8,3.4,3.3,7.6,4.1,11.4.5,2.2.6,4.6,1.2,6.8.7-1.5.3-3.8,0-5.4-.8-7-3.6-14.3-8.4-19.4,0-.4,4-3.9,4.7-4.4,5.3,5,8.2,12.5,9.8,19.6,1.6,7,2.4,19.4-1.4,25.8-2.3,3.8-6.5,4.7-9.8,1.5h0Z"/>
      <path class="st13" d="M211.3,79.2c-4.3,5-9.5,9.8-14.8,13.7-9.4,6.8-22.8,13.1-34.7,12.3-.9,0-4.4-.6-5-1.1-1.4-1.2-2.1-6.1-.8-7.4.3-.3,3.2-.4,4-.6,2.7-.7,5.1-2.7,6.6-5,4.2,1.9,8.1,1.2,12.4.2,5.4-1.4,11-3.5,16-5.8,5.3-2.4,10.4-5.9,16.4-6.3Z"/>
      <path class="st13" d="M188.8,69.7c-.5-.4-1.7-4-1.9-4.8-4-16.9,15.8-24.2,23.7-9.6.8,1.4,2.1,5.1,2.1,6.6,0,.5-.1.6-.5.9-3.4,3.6-12.5,7.1-17.3,7.4-.9,0-5.7-.1-6.1-.5h0Z"/>
      <path class="st7" d="M161.6,63c.3-.2.4-.1.2.2-1.4,1.9.5,3.3,2.2,4-10.4,5.3-22.3,17.7-17.5,30.3.9,2.4,2.2,2.4-.4,4.6-4.7,3.9-9.7,1.2-10.8-4.5-2.6-14,13.8-30.8,26.3-34.7Z"/>
      <path class="st7" d="M215.2,58.6c-.3,0-.6,0-1-.1-.9-.3-1.8-3.5-2.5-4.6-3.9-6.7-12.5-10.4-19.7-6.7-1.2.6-2.1,1.7-3.2,2.4-.9-1.7-1.9-3.1-3.4-4.4-.5-.4-1.7-.9-2-1.3-1.3-1.6,2.4-3.1,3.8-3.2s2.7.8,2.7,1.7v4.6c0,0,.3.4.5.2.8-.5.8-3.9.7-4.8s-.9-3.9-.1-4.5,4.1-1.2,4.6-.5-.2,2.7-.1,3.5c0,.8.4,2.8.8,3s.3-.4.4-.6c0-1-.4-2.2.5-2.9,1.8-1.5,6-.4,6.8,1.9.3,1,.1,1.2,0,2.1s-.4.5.2.4c1.4-2.2,2.4-4.8,3.9-7,.2-.3.7-1.2,1.1-1.1,1.3.4,4,3.8,4.1,5.1s-3.3,3.5-3.2,5.2c.5,0,.8-.4,1.1-.7,1.1-1,4.6-5.5,5.8-5.6s4.3,4.3,4.6,5.8c.4,2.1-2.6,2-4.3,3s-1.7.8-1.2,1.3,4.6-2.2,5.6-1.6c1.4.9,1.4,5.6.5,7-.6.9-5.2-.2-6.1,1.6-.4,0-.7.1-1,.5h0Z"/>
      <path class="st13" d="M177.1,43.9c4.1-.2,8.1,1.7,9.9,5.5,1.8,3.8-.1,2.9-1,5.1-.8,2.2-.7,3.1-1.1,3.7-1.7,2.7-10.7,5.5-13.9,5.7-5,.4-7.4.2-7.2-5.5.3-6.9,6.2-14.2,13.3-14.6h0Z"/>
      <path class="st13" d="M258.3,94.4c.3-3.3.1-6.9-.5-10.2,2.1-1.5,4.4-2,6.5-.2-1-5.7,6-9,10.6-6.6,2.1,1.1,4.6,4.5,5.7,6.7,1.4,2.8,1.5,4-.9,6.2-2.5,2.3-13.2,8.5-16.5,8.5s-3.8-2.6-5-4.4h0Z"/>
      <path class="st13" d="M187.8,138.5c-.9,2.9-1.5,5.7-.3,8.6s2.8,2.7,1.1,6.9c-1.6,4-4.2,8-3.4,12.7.3,1.6,1.9,3.7,1.9,5.4s-1.2,3.4-1.6,4.7-.4,3.1-.7,3.1l-7.9-2.9c.7-1.6,2.4-3,2.4-5s-2.7-3.8-2.4-6.8,3.9-7.5,5-10.3c.8-2.1,1.8-5.4,1.6-7.6-.2-2.1-1.7-3.9-1.9-5.8s0-2.7.2-4c1.9.7,4,1,6,1h0Z"/>
      <path class="st7" d="M159.4,76.6c9.7-1.3,10.8,12.8,2,17.2-13.3,6.7-15.3-15.5-2-17.2Z"/>
      <path class="st13" d="M136,84.5c-.8,1.8-1.5,4.3-1.9,6.3-.3.2-.5.4-.2.7-.3,2-.3,3.8,0,5.8,0,.4,0,.6-.2.5-2.8-.3-5.1-.7-7.9-1.5s-9.8-2.4-7.1-6.6c1.6-2.4,3.5-.8,4.9-1.2s2.4-3.5,2.3-4.2-1.6-1.6-1.9-2.4c-.8-1.9.5-4.7,2.8-4.5,2,.2,6.4,3.7,7.9,5.2.5.5,1.3,1.1,1.5,1.8h0Z"/>
      <path class="st13" d="M184.4,136.6c-7.4-1.3-13-7.5-15.5-14.4-1.6-4.5-2.2-9.8-1.7-14.6,0-.4,0-.6.4-.8,1.1-.3,1,2.6,1.2,3.4,1.1,5.1,3.2,10.1,8.4,12.2.6.2,2.8.7,2.9,1-2,5.4.5,9.7,4.4,13.2h0Z"/>
      <path class="st0" d="M201.6,76c-3.2.5-9.5.8-12.2-1.2s-.7-.6-.8-1c.5.2,3.9.2,3.9-.4s-3.4-.8-4.1-1c-2-.6-4.3-2.8-1.7-4.2,1,.7.8,1.2.4,2.2,7,2.2,14.5.7,20.8-2.9,1.1-.6,7.1-4.7,7.1-5.7,0-.6-1.4-.7-1-1.8,5.1.5,1.4,4.8-.7,6.7s-3.1,2-3.2,2.2,0,.6.1.6c1,.1,2.5-1,3.4-1.5.7-.2-1.2,2.4-1.4,2.6-.9.9-4.6,3.3-5.7,4-1.4.8-3.2,1.3-4.8,1.5h0Z"/>
      <path class="st13" d="M181.5,66.6c.4-.1.6,0,.5.2-2.8,1.8-6.2,3.4-9.3,4.6-2.7,1-4.8,1-7.2,3-.4.3-.8,1.2-1.1,1.3-.4.1-3-.8-4.1-.7-4.5.2-7.7,3.3-9.9,6.9-.2.3-.4,1.1-.4,1.1-.2.1-.7-.2-.7-.4-.1-.5,3.1-4.9,3.6-5.6,1.8-2.2,4.6-4.5,6.9-6.1s4.6-3,5.3-3.1,4.4.2,5.9.2l.7-.5c2.3-.2,4.5-.5,6.7-1l.8.3c.6-.1,1.5-.1,2.2-.2h0Z"/>
      <path class="st7" d="M232.9,34.4c1.5-3.6.3-7.1-1.9-10,.2-.3.3-.3.6-.4,1.3-.3,3.7-.5,5.1-.5s3.6.3,4.2.6c1.9.9,2.2,4.4,1.9,6.2s-1.5,4.1-2.5,4.1h-7.4Z"/>
      <path class="st7" d="M238.7,42.8c2.3.3,7.6,1.9,8.4,4.4.7,2.5-1.2,7.9-4.3,7.5s-5.9-2.1-6-2.5c1.6-3,2.6-5.9,1.9-9.3Z"/>
      <path class="st7" d="M241.6,55.4c2.3.8,3.7-.8,5.5-1.9,4.1,2.4,4.5,8.7.4,11.4-1.8,1.2-2.6.6-4.2-.6-2.3-1.8-1-1.6-.8-3.9,0-.7.1-1.7,0-2.4-.1-1.1-.6-1.6-1-2.5h0Z"/>
      <path class="st7" d="M195.8,30.7c-2.8-1.2-5.2-.9-7.8.6-.7-.7-1.2-1.8-1.9-2.4s-1.3-.6-1.4-1c-.8-2.4,1.3-5.1,3.6-5.5,5.2-1.1,6.8,4.4,7.5,8.4h0Z"/>
      <path class="st7" d="M188.5,17.9c-3.6-.3-6.6,1.5-8.6,4.4-.7-1.5-4-3.5-4.2-5-.6-3.6,3.8-4.8,6.6-4.4s4.8,2.9,6.2,5.1h0Z"/>
      <path class="st7" d="M219.3,37.5c-.5-3.2-2.9-5.3-5.6-6.7,1.9-1.5,5.9-5.1,8.4-3.5,2,1.3,3.4,5.2,2.2,7.3-.5,1-4,2.1-5,2.8h0Z"/>
      <path class="st0" d="M155.6,103.7c-5.2-1.8-9.1-7.6-8.7-13.2,0-.8,1.4-6.9,2.1-6.9,1,0,.2,2,.1,2.5-.3,5.1,1.5,8.2,6.3,10.2-1.2,2.4-.8,5,.3,7.4h0Z"/>
      <path class="st7" d="M220.1,25.8c-.2-.1-.9-3.2-1.5-4.2s-1.7-1.5-1.4-1.9c2.2-.9,6.4-3.3,8.7-1.8,2.9,1.8,1.4,8.9-2.3,8.8-.7,0-.9-.5-1.3-.6s-1.9-.3-2.1-.4h0Z"/>
      <path class="st13" d="M177.9,30.5c-1.7,0-3.6.6-4.8,1.8-.4.4-1.2,2-1.3,2.1-.2,0-.4,0-.6-.1-.3-.2-3.1-2.4-3.4-2.7-1.3-1.4.6-4.2,1.8-5.2s3.3-2.2,4.7-1.6,4,5.4,3.6,5.7h0Z"/>
      <path class="st7" d="M200.2,16.9c-2.1-.9-4.6-.6-6.7.2-1.1.5-2.1,1.3-3.2,1.7-1.4-2.9-2.3-6.3,1.4-8,4.6-2,7.9,1.9,8.6,6h0Z"/>
      <path class="st7" d="M202.8,16.4c.3-3-.3-7.5,4-7.5s6.6,5.7,4.8,9.2c-2.5-2.2-5.8-2.6-8.8-1.7h0Z"/>
      <path class="st13" d="M222.4,47c-.5-2.9-2.2-5.4-4.6-6.9,0-.3,4.5-3,5.1-3.2,3.1-.8,5.3,4.8,4.8,7.3-.2.8-1.2.8-1.9,1-1.2.5-2.3,1.2-3.5,1.7h0Z"/>
      <path class="st13" d="M204.5,41.9c-1.3-2.8-5.2-3.7-7.8-1.9.1-1.6.5-5.6,1.8-6.6,2.8-2,8.6.9,8.1,4.5s-1.9,4.2-2.2,4h0Z"/>
      <path class="st7" d="M173.5,24.2c-3.7.2-6.6,2.9-7,6.5-3.5-1.1-5.2-3.8-3.3-7.3,2.4-4.5,7.8-2.6,10.3.7h0Z"/>
      <path class="st13" d="M225.3,34.6c.6-2.5.2-4.6-1-6.8,3.2-.3,4-6.1,6.7-1.5,1.2,2,2,5.8.7,7.9-.5.9-.8,0-1.6-.3-1.6-.4-3.3.4-4.9.7h0Z"/>
      <path class="st0" d="M171.1,68c.4-.4.1-.7-.4-.7-2.3-.4-4.7-.3-6.8-1.7-.6-.4-1.8-1.5-.7-2s1.1.7,1.7,1c4.9,2,12,0,16.4-2.5,4.5-2.4,2.5-1.9,3.2-2.1s.3.1.4.4c0,.4.2,2.1.1,2.3-.2.4-1.9,1.6-2.4,2-1,.7-2.8,1-3.3,2.2-2.9.6-5.2,1.1-8.2,1.2h0Z"/>
      <path class="st13" d="M168.9,42.8c-1.3-.6-4.5-.1-5.2-1-1.1-1.4-1.1-3.9-.4-5.5,1.9-4.3,6.6-1.9,8.8.8-2,1.2-3.3,3.3-3.1,5.7Z"/>
      <path class="st7" d="M233.3,60.3c3-1.1,4.2-3.7,3.9-6.8,2.1.9,4.4,2.8,4.5,5.3,0,2.2-1.7,6.5-4.3,5.8-2-1.3-3.7-2.9-5.7-4.1-.5-.6-.2-.6.5-.2h.2c.3.2.6.2,1,0h0Z"/>
      <path class="st13" d="M201.1,23.9c-1.1-1.3-5.8.3-6.1.1s-.7-1-1.1-1.3c-1.2-1-4.3-1.6-2.5-3.5.7-.8,3.2-1.9,4.3-2,1-.1,4,0,4.7.6s.7,2.3.7,2.7v3.5h0Z"/>
      <path class="st7" d="M182.2,43.3c-1-.4-4.4-.5-5-1s-1.8-3.3-2.3-4-2.7-2.9-2.8-3.3c-.3-1.4,2.8-3.7,4.1-3.9,3.4-.5,1.3,1.3,1.1,3-.4,3.4,3.8,5.9,4.8,9.1Z"/>
      <path class="st13" d="M209.4,36.3c-.2-.3,2.9-4.3,3.4-4.5,1.7-.8,6,3.9,5.8,5.8,0,.9-3.8,3-4.5,4-1.1-2.1-2.2-4.7-4.7-5.3h0Z"/>
      <path class="st7" d="M164.3,33.6c-.3.9-1.2,1.4-1.7,2.3-1,2.1-.6,4.6.4,6.6-3.3,1.5-6.3.4-6.5-3.5-.3-5,3.8-5.5,7.8-5.4h0Z"/>
      <path class="st7" d="M246.8,35.2c1.8,1.8,1.7,4.7.7,6.9-.3.5-.8,1.7-1.5,1.7s-3.8-2-4.7-2.1c1.1-1.6,1.3-3.2,1.2-5.1,0-.8-.8-2.2-.1-2.8,1-.9,3.6.5,4.4,1.3h0Z"/>
      <path class="st13" d="M228.1,49.1c2.7.6,1.6,8.1-.3,8.4s-3.5-.9-4.7-.7c1-2.7,1.1-5.2-.2-7.8,1.5.2,3.8-.3,5.2,0h0Z"/>
      <path class="st13" d="M189.5,40.4c-2.5-1.2-4.6,0-6.6,1.4-.2,0-1.9-2.6-2-2.9-1.2-3.9,6.3-6.4,7.6-3.3.3.6,1.2,4.4.9,4.7h0Z"/>
      <path class="st13" d="M209.8,23.5c-.9,0-1.5-.7-2.5-1-1.6-.5-3.4-.5-5-.2-.2-.2.2-4.3.5-4.7,1.4-2,8.7-.1,8.7,1.9,0,.9-1.5,3-1.7,4h0Z"/>
      <path class="st13" d="M237.7,42.6c.5,2.1,0,4.6-.8,6.6-1.2,3-1.2,1.6-3.3.5-1-.5-2-.9-3.1-1.3.4-.6.5-3.2.7-3.4s.9-.2,1.3-.5c.4-.4.7-1.8,1.1-2.1.9-.5,3,.3,4.1.1h0Z"/>
      <path class="st7" d="M207.2,36.3c-1.1-3.5-5.1-4.9-8.5-3.9.6-1.6,2.1-4.6,4-4.8,3.4-.4,6,2,5.7,5.5,0,.4-.8,3.6-1.2,3.3Z"/>
      <path class="st7" d="M228.5,44.3c.2-3.5-1.2-6.1-3.9-8.2,3.1-.8,5.5-2.8,7.2,1.1,1.4,3.3,1.1,7.2-3.4,7.1h0Z"/>
      <path class="st7" d="M229.2,58.1c1.5-2.6,2.2-5.3,1-8.2,3.7.5,8,3.7,5.2,7.7-2.8,4-3.5,1.3-6.2.5h0Z"/>
      <path class="st20" d="M187.6,33.9c-3-1-6.8.6-7.5,3.9-3.6-2.2.2-8.3,3.3-8.7s4,3.3,4.2,4.8h0Z"/>
      <path class="st13" d="M235.3,35.3c2,0,4,.6,6.1,0,.5,1.4.5,6-1.4,6.2l-5.4-.4c-.3-.3.7-2,.7-2.3v-3.5h0Z"/>
      <path class="st13" d="M196,36.5c-1.9-.5-3.7-.1-5.4.7-.2,0-1.7-3.9-1.8-4.3-.3-1.9,3.6-2.2,4.9-2,3.2.4,2.2,3.2,2.3,5.6h0Z"/>
      <path class="st13" d="M189.2,18.9c.3.3.6,1.7,1,2.1-4.3-.3-7.3,2.7-6.8,7-.2,0-.6,0-.7,0s-.5-1.7-.7-2.1c-.3-.7-1.3-2.2-1.4-2.7-.4-2.3,6.7-6.1,8.5-4.3h0Z"/>
      <path class="st13" d="M214.2,28.3c0-1.9-1.5-3.2-2.4-4.7,0-.3,4.1-3.1,4.4-3,1.1.2,3.1,4,3,5.2-.6.4-4.8,2.8-5,2.5h0Z"/>
      <path class="st20" d="M209.4,33.6c.8-2.4-.2-4.3-1.9-5.9.6-.5,2.9-3.3,3.5-3.2,1.1,0,2.8,3.6,2.6,4.7s-3.5,3.7-4.1,4.5h0Z"/>
      <path class="st20" d="M176.4,42.8c-1.4-.4-4.2,1.6-5.2,1.5s-1.4-.8-1.5-1c-.8-1.4,1.5-5.8,2.9-5.5s3.3,4.2,3.8,5h0Z"/>
      <path class="st20" d="M197.2,31.7c-.3-2.3-.5-4.7-1.7-6.8,1.8-.6,3.7-.6,5.6-.2,0,0-.2,2-.3,2.3-.2.8-1.2,1.4-1.7,2.1s-.9,1.7-1.4,2.6c-.2.4-.4.5-.5,0h0Z"/>
      <path class="st20" d="M180.5,25.9c-.7-.3-2.6,1.4-2.8,1.4s-2.4-3.5-3.2-3.9c-.6-1,1.6-3.4,2.5-2.8.5.6,3.8,4.8,3.4,5.2h0Z"/>
      <path class="st20" d="M202.1,26.4c.3-.8,0-2.1.3-2.8.4-1.2,6.1-.7,6.5.5s-2,2.9-2.3,3c-.5.1-3.4-1.3-4.4-.7Z"/>
      <path class="st9" d="M134,90.8c0,.3-.2.6-.2.7-1.4-.5-4.7-.6-5.8-1.6s0-2.2.6-2.6c1.4-1,4.4,2.7,5.5,3.4Z"/>
      <path class="st8" d="M223.9,47.9c1.6-1.5,4-2,6.1-2.7.8,4.8-3.2,2.1-6.1,2.7Z"/>
      <path class="st11" d="M178.7,27.2c.7-.7,2-1.3,2.6-.3,1.3,2.1-1.1,2.1-2.1,3.6-.6-1.1-1.5-2.3-.5-3.3h0Z"/>
      <path class="st24" d="M232.6,62.5c.3.3.2.5-.2.2-3-1.6-6.4-2-9.7-2.2v-.5c1,.3,2.2-.2,3.3-.3,2.5,0,4.6,1.4,6.7,2.7h0Z"/>
      <path class="st17" d="M234.3,35.4c.6.5.1,3.4-.2,4.2-.5,1.3-.7-1.3-.9-1.8-.3-.9-.8-1.6-1-2.5.4,0,2-.1,2.2,0h0Z"/>
      <path class="st15" d="M236.2,65.4l-.2.2c-.6-.7-2.8-2.5-3.6-2.9l.2-.2c1.5.9,2.5,2.1,3.6,2.9Z"/>
      <path class="st1" d="M206.5,74.8c-1.8.7-3,1-4.8,1.5v-.2c1.2-.2,3.8-.9,4.8-1.5v.2Z"/>
      <path class="st19" d="M232.1,60.3c-.2,0-.4,0-.5.2-.8-.5-1.6-.8-2.4-1.2-.3-.3-.2-.4.2-.2.9.3,1.9.5,2.7,1.2Z"/>
      <path class="st23" d="M182.2,66.3c0-.1.2-.1.2,0-.1,0-.2.3-.5.5l-.5-.2c.1,0,.4-.4.7-.2h0Z"/>
      <path class="st3" d="M229.5,59.1l-.2.2c-.3-.2-.8-.2-.7-.5.4-.2.8.2,1,.2h0Z"/>
      <path class="st18" d="M134,98.1c-.2,0-.4-.2-.5-.2l.2-.5c0,0,.2.4.2.7h0Z"/>
      <path class="st16" d="M197.7,31.7c-.1.2-.2.7-.4.7-.3,0,0-.5-.1-.7h.5Z"/>
      <path class="st22" d="M161.6,63c.2,0,.3-.4.7-.2,0,.3-.4.4-.5.5l-.2-.2h0Z"/>
      <path class="st19" d="M233.3,60.3c-.2,0-.7.6-1,0,.3,0,.6,0,1,0Z"/>
      <path class="st14" d="M224.6,58.6c.2,0,.5-.1.5.1,0,.6-.2.3-.5.4v-.5h0Z"/>
      <path class="st10" d="M182.2,66.3c.1-.4.8-.4.7,0-.1,0-.4,0-.5,0h-.2Z"/>
      <path class="st13" d="M222.2,201c0,0-.6,0-.7.1-.4.3-.6,6.3-.7,7.5-1.6,10.6-6.8-5.9-8.1-5.9s-.4,1-.3,1.3c.3,3.2,4.7,10.3-1.4,10.1-1.8,0-2.5-1.1-3.1-2.7-1.4-3.2-3.8-14.2-3.5-17.5.3-3.6,2.6-4.4,5.5-2.4,2.9,2,4.4,5.2,6.4,7.9,2,2.7.2.5.7.4.4-3.1,1.3-11.8,5.1-12.5,1.1-.2,2,.3,2.8,1.1,2.1,2.5,5.1,16.4,4.7,19.7-.4,3.4-5.1,4.3-6.2.7-.4-1.2-.5-7.4-1-7.8h0Z"/>
      <path class="st13" d="M190.4,189.7c9.5-1.1,13.3,5.2,12.1,13.8-1,7.6-5.6,12.2-13.5,10.2-11-2.8-8.9-22.8,1.4-24h0Z"/>
      <path class="st13" d="M249.5,171.6c8-1.1,16.9,8.3,13.7,16.1-.9,2.1-4.7,6.7-6.6,7.9-3.1,2-7.3-2.9-9.3-4.9-2-2.1-7-7.6-7.3-9.6-.5-2.7.7-4,2.5-5.6,1.7-1.6,4.7-3.5,7.1-3.8h0Z"/>
      <path class="st13" d="M124.8,134.2c-.1,0-.2,0-.4,0-.2,0-2.3,2.2-3,2.6-2,1.4-8.6,4.8-9.3.6-.8-4.9,4.6-5,7.6-7.2.7-.5,3.1-2.5,1-2.6-2.3-.1-6.9,2.2-8.7-.5-1.8-2.7.3-4.4,2.8-5.2,3.6-1.1,14.4-1.8,17.9-.7.9.3,1.7.8,2.2,1.6,1.3,2.2,1.2,9.2.1,11.6-1.9,4.3-8.7,4-10.4-.3h0Z"/>
      <path class="st13" d="M285.6,98.4c3.2,3.2,3.8,10,0,13-2.9,2.3-13.6,5-17.2,4.6-2.8-.3-4.2-3.4-1.8-5.2s12.5-3.2,13.6-4.8c.4-.6.4-1.8-.4-2-2.1-.6-8.4,1.7-10.9,2.1s-5.6.9-5.9-2.3c-.3-3.1,4.5-4.4,6.8-5.1,4.2-1.3,12.4-3.7,15.9-.3h0Z"/>
      <path class="st13" d="M141,155.8c2.4-.3,4.2,2,2.9,4.1-1.9,3.2-7.9,5.4-10.5,8.1-2.6,2.7-1.4,2.9.3,2.9,2.6.1,9.5-6.7,13.1-7,2.3-.2,3.6,2.2,2.7,4.2-.9,2.2-7,6.2-9.2,7.5-4.4,2.6-8.8,5.1-12.9.4-2.9-3.3-4-7.3-1.1-11,2.1-2.7,11.4-8.9,14.7-9.3h0Z"/>
      <path class="st13" d="M140,149.3c1,1,1.1,2.8.3,3.9-1.5,2.2-9.4,4.7-12.2,5.5-3.1.9-10,3.8-10.4-1.3-.3-3.8,5.5-3.5,6.3-4.8s0-2.3-.4-2.7c-1.2-1.7-6.8,2.9-8.7-.6-.8-1.4-.6-2.9.6-4,2-1.9,14.5-6.1,17.4-6.3,1.4-.1,3.4-.2,4.2,1.1,3.5,5.4-8.7,5.8-9.4,8-.3,1,.4,2.7,1.5,2.8,1.5,0,5.7-1.9,7.8-2.2,1-.1,2.2-.2,2.9.5h0Z"/>
      <path class="st13" d="M112.5,115.4c-1.3-1.4-.3-4.2,1.4-4.9,2.2-.9,2.6.7,3.5-2.3s-.2-2.5-2-4.4c-1.4-1.4-1-4.7,1.1-5.2,1.4-.3,2.8.2,4.1.7,4.1,1.3,12.9,5.8,15.5,9.2,5.1,6.8-7.8,8.2-11.9,8.5-2.3.1-10.1.2-11.7-1.5h0Z"/>
      <path class="st13" d="M151.2,171.1c3.2-.5,6,1.5,7.9,3.8,1.9,2.3,3.3,5.4.2,7.5-3,2.1-3.5-3.1-5.4-3.4-2.2-.3-.9,4.5-.8,5.7.6,9.7-8.2,12.2-14,5.1-2-2.4-3.6-6.1-.2-8.2,3.7-2.3,4.6,5.4,7,3.9,1.2-.8.6-6.8.7-8.5.2-2.4,2-5.4,4.5-5.9h0Z"/>
      <path class="st13" d="M236.4,180.7c1.7-.3,2.4.4,3,2,.6,1.4.8,1.9-.5,2.9-1.8,1.3-5.9,1.7-3.8,4.6,1.6,2.2,4-1.6,5.9-1.3,1.1.2,2.4,2.9,1.9,3.9-.8,1.7-6.7,1.5-3.9,4.8,1.6,1.9,4.7-2.5,6.5-2.1,1.3.2,2.6,3.3,2.2,4.6-.5,1.7-5.5,4.4-7.1,5.2-1.7.8-2.5,1.3-4.2.1-2.6-1.8-9.3-14.4-9.6-17.6-.1-1.5,0-2.2,1.2-3.1,1-.7,7.3-3.8,8.4-4h0Z"/>
      <path class="st13" d="M269.6,130.4c1.4-.1,4,.8,4.4,2.3.5,2.1-2.3,2.7-2.1,5.3.3,3.5,10,5.2,10.7,1.2.3-1.9-2.5-5.6.9-6.1,7.6-1.3,7.3,10.1,2.4,13.8-5.4,4-18,1.4-20.4-5.2-1.2-3.4,0-10.7,4.3-11.2h0Z"/>
      <path class="st13" d="M173,185.1c4.2-.4,11.8,3,9.1,8.2-.6,1.2-1.7,2.2-3.1,1.9-1.8-.3-2.5-4.3-5.8-2.6-2.5,1.3-5.5,9.6-.7,10.1,1.7.2,5-1.6,4.9,2.1-.2,7.5-12.5,5-14.4-2.1-1.7-6.1,3.1-16.9,10-17.6h0Z"/>
      <path class="st13" d="M261.4,153.1c4.3-.9,7,7.5,8.9,10.3,1.9,2.8,3.9,2.4,6.2,4.2,2,1.5,1.1,3.8-.2,5.5-3.7,4.8-5.9-1.1-9.5-2-3.3-.9-12,.6-14-2.7-.9-1.4-.4-2.7.6-4,2.8-3.6,7.3.4,10.5.7,1.6.1,0-1.8-.6-2.4-1.5-1.6-4.9-3.6-4.7-6.1.1-1.4,1.4-3.2,2.8-3.5h0Z"/>
      <path class="st13" d="M289.7,127.3c-1,1.1-4.6,1.6-6.1,1.8-3.3.4-8,.5-11.4.2-1.8-.1-5.1-.3-5.7-2.2-.8-2.4.8-3.6,3-4.2,4.2-1,8.8-.2,13.1-.9.7-.5-.6-4.2,1.7-5.1,1.8-.7,5.1-.5,5.8,1.7.4,1.2.4,6.1.3,7.5s-.3.9-.6,1.2h0Z"/>
      <path class="st12" d="M200.8,56.9c4.8-1.1,4.4,7.2.3,6.4-2.9-.6-3.1-5.8-.3-6.4Z"/>
      <path class="st4" d="M167.3,57.3c-1.5-1.5.4-6,2.7-4.5s-.5,6.7-2.7,4.5Z"/>
      <path class="st6" d="M270.8,84.1c1.3-.3,3.9.5,3.4,2s-3.6,2.4-4.2,2.3c-1.4-.4-1.3-3.8.7-4.3h0Z"/>
      <path class="st5" d="M263.5,88.7c1.4-.4,3.4.9,2.6,2.1,0,.1-2,1.1-2.2,1.2-1.6.3-1.9-2.8-.4-3.3h0Z"/>
      <path class="st7" d="M191.6,196.5c5.9-1.4,4.6,10.5.7,10.9-5.2.5-3.6-10.2-.7-10.9Z"/>
      <path class="st7" d="M250.5,178.1c2.9-.2,6.8,4.4,6.2,7.2-.2,1-1.4,2.7-2.5,2.2-1.1-.5-4.8-4.6-5.6-5.8-.2-.3-.8-1-.9-1.3-.4-1.1,1.7-2.3,2.8-2.4h0Z"/>
      <path class="st21" d="M130.3,127.4c.7.7,0,2.7-1,3.2-2.4,1-3.9-2.4-2.9-3.1.4-.3,3.4-.5,3.8,0Z"/>
      <path class="st5" d="M121.6,107.1c.8-.3,5.8,2,5.7,2.8s-5.3.8-6.1.3-.2-2.8.4-3Z"/>
    </g>
  </g>
</svg>